<svg xmlns="http://www.w3.org/2000/svg" width="518.487" height="89.736" viewBox="0 0 518.487 89.736"><g transform="translate(6058.2 6529.436)"><path d="M44.086-69.936q15.98,0,23.876,6.157t7.9,17.813a26.124,26.124,0,0,1-2.914,11.891,23.921,23.921,0,0,1-8.6,9.447,24.7,24.7,0,0,1-13.677,3.666,13.728,13.728,0,0,1-4.136-.517,14.5,14.5,0,0,1-3.008-1.363,5.386,5.386,0,0,0-2.444-.846,2.576,2.576,0,0,0-2.256,1.316l-.47.94.282-.658-.282.658A50.223,50.223,0,0,1,26.79-3.1q-7.238,7.05-16.074,7.05Q3.008,3.948-.846-.611A16.4,16.4,0,0,1-4.7-11.562a18.535,18.535,0,0,1,1.6-7.567,14.867,14.867,0,0,1,4.418-5.828A10.226,10.226,0,0,1,7.8-27.166a1.562,1.562,0,0,1,.987.329.983.983,0,0,1,.423.8,6.3,6.3,0,0,0,2.256,5.029,8.38,8.38,0,0,0,5.64,1.927q4.324,0,8.93-4.089t7.708-11.985l1.034-2.632q.658-1.786,1.88-5.029t2.068-5.4q1.692-4.512,6.11-4.512t4.418,3.2a7.2,7.2,0,0,1-.282,1.88l-1.128,3.29q-1.692,4.982-1.974,6.11l.282-.658a7.662,7.662,0,0,0-.564,2.632,2.367,2.367,0,0,0,1.034,2.162,6.316,6.316,0,0,0,3.29.658,9.946,9.946,0,0,0,5.217-1.5,11.587,11.587,0,0,0,4.089-4.324,13.317,13.317,0,0,0,1.6-6.674q0-5.922-4.136-8.648T44.462-57.34q-8.836,0-14.57,3.1t-5.734,9.212a4.823,4.823,0,0,0,1.034,3.149,3.159,3.159,0,0,0,2.538,1.269,6.046,6.046,0,0,1,.376,1.786,8.626,8.626,0,0,1-1.6,4.7,12.84,12.84,0,0,1-4.465,4.089,13.079,13.079,0,0,1-6.627,1.645A10.535,10.535,0,0,1,6.768-32.2a14.185,14.185,0,0,1-3.1-9.259A22.922,22.922,0,0,1,8.648-55.742Q13.63-62.228,22.8-66.082A54.587,54.587,0,0,1,44.086-69.936ZM89.112,0q-7.99,0-12.126-5.217T72.85-18.33a32.45,32.45,0,0,1,3.008-13.442,27.857,27.857,0,0,1,8.648-10.951A20.888,20.888,0,0,1,97.478-47q6.2,0,9.4,3.384a11.84,11.84,0,0,1,3.2,8.46,13.729,13.729,0,0,1-1.927,6.862,15.64,15.64,0,0,1-5.358,5.546,14.41,14.41,0,0,1-7.849,2.162,14.875,14.875,0,0,1-7.332-1.5,1.443,1.443,0,0,0-.564-.188.941.941,0,0,0-.752.329,1.484,1.484,0,0,0-.282.987q0,2.35,2.773,3.666a16.333,16.333,0,0,0,7,1.316,22.526,22.526,0,0,0,10.152-2.538,20.061,20.061,0,0,0,8.084-7.238,1.73,1.73,0,0,1,1.5-.846,2.981,2.981,0,0,1,2.3,1.128,1.673,1.673,0,0,1,.423,2.068q-6.2,11.562-13.583,17.484T89.112,0ZM92.5-27.636a5.667,5.667,0,0,0,4.183-1.645A5.031,5.031,0,0,0,98.324-32.9,3.672,3.672,0,0,0,97.2-35.673,4.435,4.435,0,0,0,94-36.754a5.879,5.879,0,0,0-4.277,1.6,4.975,4.975,0,0,0-1.645,3.666,3.672,3.672,0,0,0,1.128,2.773A4.576,4.576,0,0,0,92.5-27.636Zm67.4,1.88a1.481,1.481,0,0,1,1.41-.658,3.4,3.4,0,0,1,2.35.94,1.6,1.6,0,0,1,.47,2.068,30.709,30.709,0,0,1-6.486,9.212,13.865,13.865,0,0,1-9.964,3.666h-.564a27.88,27.88,0,0,1-7.755,7.708A16.088,16.088,0,0,1,130.566,0a9.178,9.178,0,0,1-6.11-1.974q-2.35-1.974-2.35-6.016a13.529,13.529,0,0,1,.188-2.538V-10.9a1.484,1.484,0,0,0-.282-.987.941.941,0,0,0-.752-.329q-1.128,0-1.6,1.692L119-7.05q-1.786,8.742-3.1,13.771a33.812,33.812,0,0,1-3.384,8.554Q110.45,18.8,107.63,18.8q-6.58,0-6.58-6.486a24.32,24.32,0,0,1,1.457-7.473Q103.964.47,107.442-8.272l2.726-6.862,3.854-10.622.658-1.88q3.2-9.4,4.606-12.925a15.822,15.822,0,0,1,2.82-4.982A4.992,4.992,0,0,1,125.866-47q4.324,0,3.76,3.2a1.235,1.235,0,0,0,.235,1.034,1.242,1.242,0,0,0,.987.376,2.516,2.516,0,0,0,1.786-.846A13,13,0,0,1,137.1-46.2a13.852,13.852,0,0,1,4.747-.8,11.271,11.271,0,0,1,8.977,3.854q3.337,3.854,3.337,10.434a39.3,39.3,0,0,1-1.786,11.562Q156.7-21.15,159.894-25.756Zm-27.542,6.3a6.688,6.688,0,0,0,4.089-1.363,9.517,9.517,0,0,0,2.867-3.431,9,9,0,0,0,1.034-4.042,5.138,5.138,0,0,0-1.269-3.572,4.991,4.991,0,0,0-3.9-1.41,6.808,6.808,0,0,0-5.5,2.726,9.335,9.335,0,0,0-2.209,6.016,5.536,5.536,0,0,0,1.175,3.666A4.565,4.565,0,0,0,132.352-19.458ZM175.4,0q-7.99,0-12.126-5.217T159.142-18.33a32.45,32.45,0,0,1,3.008-13.442A27.857,27.857,0,0,1,170.8-42.723,20.888,20.888,0,0,1,183.77-47q6.2,0,9.4,3.384a11.84,11.84,0,0,1,3.2,8.46,13.729,13.729,0,0,1-1.927,6.862,15.64,15.64,0,0,1-5.358,5.546,14.41,14.41,0,0,1-7.849,2.162,14.875,14.875,0,0,1-7.332-1.5,1.443,1.443,0,0,0-.564-.188.941.941,0,0,0-.752.329,1.484,1.484,0,0,0-.282.987q0,2.35,2.773,3.666a16.333,16.333,0,0,0,7,1.316,22.526,22.526,0,0,0,10.152-2.538,20.061,20.061,0,0,0,8.084-7.238,1.73,1.73,0,0,1,1.5-.846,2.981,2.981,0,0,1,2.3,1.128,1.673,1.673,0,0,1,.423,2.068q-6.2,11.562-13.583,17.484T175.4,0Zm3.384-27.636a5.667,5.667,0,0,0,4.183-1.645,5.031,5.031,0,0,0,1.645-3.619,3.672,3.672,0,0,0-1.128-2.773,4.435,4.435,0,0,0-3.2-1.081,5.879,5.879,0,0,0-4.277,1.6,4.975,4.975,0,0,0-1.645,3.666,3.672,3.672,0,0,0,1.128,2.773A4.576,4.576,0,0,0,178.788-27.636ZM258.406,1.128q-10.528,0-16.92-6.721T235.094-25.85A45.617,45.617,0,0,1,240.217-47a43.161,43.161,0,0,1,13.63-15.933,30.82,30.82,0,0,1,18-5.969q8.742,0,13.3,3.619a11.875,11.875,0,0,1,4.559,9.823,18.157,18.157,0,0,1-2.679,9.588,21.094,21.094,0,0,1-6.627,6.956,14,14,0,0,1-7.52,2.538,3.992,3.992,0,0,1-2.491-.752,2.2,2.2,0,0,1-.987-1.786,4.31,4.31,0,0,1,.376-1.316q2.726-5.17,2.726-8.46a4.259,4.259,0,0,0-1.457-3.525,6.033,6.033,0,0,0-3.9-1.175,12.487,12.487,0,0,0-7.614,2.585,17.492,17.492,0,0,0-5.452,6.862,20.967,20.967,0,0,0-1.974,8.883,14.368,14.368,0,0,0,4.747,11.045q4.747,4.371,13.677,4.371a30.29,30.29,0,0,0,9.353-1.41,11.832,11.832,0,0,0,6.533-4.7,1.73,1.73,0,0,1,1.5-.846,2.9,2.9,0,0,1,2.209,1.128,1.811,1.811,0,0,1,.517,2.068q-6.11,12.314-13.865,18.424A28.8,28.8,0,0,1,258.406,1.128Zm75.012-26.884a1.73,1.73,0,0,1,1.5-.846,2.981,2.981,0,0,1,2.3,1.128,1.673,1.673,0,0,1,.423,2.068l-1.786,3.478a106.35,106.35,0,0,1-5.123,9.494A29.031,29.031,0,0,1,324.347-3.2,13.506,13.506,0,0,1,315.558,0q-8.084,0-8.084-10.246a28.629,28.629,0,0,1,.282-3.854A38.154,38.154,0,0,1,301.27-4.042a11.432,11.432,0,0,1-8.648,3.948,7.3,7.3,0,0,1-6.11-2.773Q284.35-5.64,284.35-11.28a48.688,48.688,0,0,1,2.068-14.476q3.384-10.622,6.721-15.933T300.33-47q2.914,0,2.914,3.76a15.887,15.887,0,0,1-.517,4.042q-.517,1.974-1.645,5.358-1.128,3.2-1.6,4.982a13.985,13.985,0,0,0-.47,3.572,5,5,0,0,0,.846,3.2,3.844,3.844,0,0,0,3.1,1.034q5.64,0,7.9-6.58l.094-.376Q313.96-37.6,316.968-42.3t6.486-4.7q2.914,0,2.914,3.76a14.315,14.315,0,0,1-.517,3.713q-.517,1.927-1.645,5.311-1.034,2.914-1.551,4.747a12.392,12.392,0,0,0-.517,3.337,5.115,5.115,0,0,0,1.363,3.854,4.741,4.741,0,0,0,3.431,1.316,5.172,5.172,0,0,0,3.431-1.222A17.545,17.545,0,0,0,333.418-25.756ZM339.246,0q-8.93,0-8.93-9.682a49.5,49.5,0,0,1,3.2-16.074l2.068-6.016q4.982-14.476,7.661-21.291a48.241,48.241,0,0,1,5.5-10.669q2.82-3.854,6.2-3.854,3.854,0,3.854,3.478a12.131,12.131,0,0,1-1.6,5.358q-8.084,16.262-11,26.978a23.335,23.335,0,0,0-1.128,6.2,5.245,5.245,0,0,0,.987,3.384,4.185,4.185,0,0,0,3.431,1.222q4.512,0,7.614-4.794a1.73,1.73,0,0,1,1.5-.846,2.981,2.981,0,0,1,2.3,1.128,1.673,1.673,0,0,1,.423,2.068l-1.786,3.478a106.35,106.35,0,0,1-5.123,9.494A29.031,29.031,0,0,1,348.035-3.2,13.506,13.506,0,0,1,339.246,0Zm25.192,0q-5.17,0-7.708-3.243t-2.538-8.7a32.94,32.94,0,0,1,2.068-11Q357.482-26.7,360.4-34.5l1.88-5.17a4.2,4.2,0,0,1-3.525-1.5,5.356,5.356,0,0,1-1.175-3.384,3.784,3.784,0,0,1,.329-1.692,1.054,1.054,0,0,1,.987-.658,9.272,9.272,0,0,0,6.2-2.068,12.113,12.113,0,0,0,3.572-5.076,13.456,13.456,0,0,1,3.149-5.029,5.415,5.415,0,0,1,3.525-1.269q3.384,0,3.384,3.29a12.815,12.815,0,0,1-1.6,5.546A8.672,8.672,0,0,0,376-48.034q0,1.128,1.222,1.128h4.888a1.145,1.145,0,0,1,1.034.705,4.127,4.127,0,0,1,.376,1.927,8.231,8.231,0,0,1-1.081,4.089,3.123,3.123,0,0,1-2.679,1.927,44.1,44.1,0,0,0-6.627.329,3.924,3.924,0,0,0-2.679,1.551,16.922,16.922,0,0,0-1.786,4.606,15.83,15.83,0,0,0-.658,3.854,6.61,6.61,0,0,0,1.927,5.029,7.257,7.257,0,0,0,5.217,1.833,10.29,10.29,0,0,0,4.982-1.222,9.748,9.748,0,0,0,3.666-3.478,1.641,1.641,0,0,1,1.5-.752,2.942,2.942,0,0,1,2.209,1.081,1.735,1.735,0,0,1,.517,2.021L387-21.338a97.429,97.429,0,0,1-5.405,9.823A32.894,32.894,0,0,1,374.4-3.572,15.433,15.433,0,0,1,364.438,0ZM430.8-25.756a1.73,1.73,0,0,1,1.5-.846,2.981,2.981,0,0,1,2.3,1.128,1.673,1.673,0,0,1,.423,2.068l-1.786,3.478a106.35,106.35,0,0,1-5.123,9.494A29.031,29.031,0,0,1,421.731-3.2,13.506,13.506,0,0,1,412.942,0q-8.084,0-8.084-10.246a28.629,28.629,0,0,1,.282-3.854,38.154,38.154,0,0,1-6.486,10.058,11.432,11.432,0,0,1-8.648,3.948,7.3,7.3,0,0,1-6.11-2.773q-2.162-2.773-2.162-8.413A48.688,48.688,0,0,1,383.8-25.756q3.384-10.622,6.721-15.933T397.714-47q2.914,0,2.914,3.76a15.887,15.887,0,0,1-.517,4.042q-.517,1.974-1.645,5.358-1.128,3.2-1.6,4.982a13.985,13.985,0,0,0-.47,3.572,5,5,0,0,0,.846,3.2,3.844,3.844,0,0,0,3.1,1.034q5.64,0,7.9-6.58l.094-.376q3.008-9.588,6.016-14.288t6.486-4.7q2.914,0,2.914,3.76a14.315,14.315,0,0,1-.517,3.713q-.517,1.927-1.645,5.311-1.034,2.914-1.551,4.747a12.392,12.392,0,0,0-.517,3.337,5.115,5.115,0,0,0,1.363,3.854,4.741,4.741,0,0,0,3.431,1.316,5.172,5.172,0,0,0,3.431-1.222A17.545,17.545,0,0,0,430.8-25.756Zm37.13,0a1.73,1.73,0,0,1,1.5-.846,2.981,2.981,0,0,1,2.3,1.128,1.673,1.673,0,0,1,.423,2.068l-1.786,3.478a106.351,106.351,0,0,1-5.123,9.494A29.031,29.031,0,0,1,458.861-3.2,13.506,13.506,0,0,1,450.072,0q-5.358,0-7.849-2.867a10.305,10.305,0,0,1-2.491-7,21.691,21.691,0,0,1,1.081-6.721,79.463,79.463,0,0,1,3.055-7.755q1.316-3.008,1.88-4.7a9.456,9.456,0,0,0,.564-2.914,4.022,4.022,0,0,0-1.222-2.35,9.023,9.023,0,0,0-3.76-2.35q-1.692,3.666-6.3,13.254a1.463,1.463,0,0,1-1.5.94,3.191,3.191,0,0,1-2.021-.8A2.254,2.254,0,0,1,430.52-25a1.016,1.016,0,0,1,.282-.752q2.538-3.572,5.734-12.314a4.673,4.673,0,0,1-2.3-1.739,6.309,6.309,0,0,1-.8-3.525,8.525,8.525,0,0,1,2.4-5.781,7.682,7.682,0,0,1,5.969-2.679,22.277,22.277,0,0,1,8.413,1.692,20.618,20.618,0,0,1,6.815,4.277q2.632,2.585,2.632,5.123a10.926,10.926,0,0,1-.517,3.384q-.517,1.6-1.457,3.854a41.187,41.187,0,0,0-1.551,4.183,12.968,12.968,0,0,0-.517,3.713,4.275,4.275,0,0,0,1.41,3.337,6.47,6.47,0,0,0,4.418,1.269,5.3,5.3,0,0,0,3.431-1.175A15.671,15.671,0,0,0,467.932-25.756ZM483.442,0q-7.99,0-12.126-5.217T467.18-18.33a32.45,32.45,0,0,1,3.008-13.442,27.857,27.857,0,0,1,8.648-10.951A20.887,20.887,0,0,1,491.808-47q6.2,0,9.4,3.384a11.84,11.84,0,0,1,3.2,8.46,13.729,13.729,0,0,1-1.927,6.862,15.64,15.64,0,0,1-5.358,5.546,14.409,14.409,0,0,1-7.849,2.162,14.875,14.875,0,0,1-7.332-1.5,1.443,1.443,0,0,0-.564-.188.941.941,0,0,0-.752.329,1.484,1.484,0,0,0-.282.987q0,2.35,2.773,3.666a16.333,16.333,0,0,0,7,1.316,22.526,22.526,0,0,0,10.152-2.538,20.061,20.061,0,0,0,8.084-7.238,1.73,1.73,0,0,1,1.5-.846,2.981,2.981,0,0,1,2.3,1.128,1.673,1.673,0,0,1,.423,2.068Q506.378-11.844,499-5.922T483.442,0Zm3.384-27.636a5.667,5.667,0,0,0,4.183-1.645,5.031,5.031,0,0,0,1.645-3.619,3.672,3.672,0,0,0-1.128-2.773,4.435,4.435,0,0,0-3.2-1.081,5.879,5.879,0,0,0-4.277,1.6,4.975,4.975,0,0,0-1.645,3.666,3.672,3.672,0,0,0,1.128,2.773A4.576,4.576,0,0,0,486.826-27.636Z" transform="translate(-6053 -6459)"/><path d="M44.086-70.436A57.04,57.04,0,0,1,58.17-68.881a27.432,27.432,0,0,1,10.1,4.708,19.994,19.994,0,0,1,6.072,7.723,25.766,25.766,0,0,1,2.017,10.484A26.739,26.739,0,0,1,73.39-33.85a24.522,24.522,0,0,1-8.776,9.642,25.3,25.3,0,0,1-13.948,3.746A14.277,14.277,0,0,1,46.376-21a15.071,15.071,0,0,1-3.1-1.406,4.958,4.958,0,0,0-2.193-.779,2.081,2.081,0,0,0-1.821,1.065l-.446.893a58.819,58.819,0,0,1-5.088,10.288,44.788,44.788,0,0,1-6.584,8.2,26.527,26.527,0,0,1-7.786,5.387,21.372,21.372,0,0,1-8.637,1.8A18.9,18.9,0,0,1,3.788,3.273,12.467,12.467,0,0,1-1.228-.288,16.963,16.963,0,0,1-5.2-11.562a19.116,19.116,0,0,1,1.641-7.769,15.428,15.428,0,0,1,4.567-6.02A10.76,10.76,0,0,1,7.8-27.666a2.057,2.057,0,0,1,1.294.434,1.482,1.482,0,0,1,.616,1.194,5.772,5.772,0,0,0,2.081,4.649,7.931,7.931,0,0,0,5.315,1.807c2.743,0,5.636-1.333,8.6-3.963,3-2.661,5.545-6.629,7.575-11.794l1.032-2.626c.437-1.186,1.069-2.878,1.88-5.028S37.7-46.965,38.261-48.4c1.2-3.207,3.416-4.833,6.577-4.833,4.065,0,4.918,2.01,4.918,3.7a7.733,7.733,0,0,1-.3,2.012l-.009.031-1.128,3.29c-.882,2.6-1.48,4.418-1.783,5.431l.086.034a7.216,7.216,0,0,0-.532,2.456,1.886,1.886,0,0,0,.8,1.74,5.9,5.9,0,0,0,3.022.58A9.5,9.5,0,0,0,54.873-35.4a11.147,11.147,0,0,0,3.912-4.142,12.887,12.887,0,0,0,1.533-6.427,11.33,11.33,0,0,0-.985-4.907A8.162,8.162,0,0,0,56.407-54.2c-2.661-1.754-6.68-2.643-11.945-2.643-5.779,0-10.6,1.023-14.332,3.042-3.682,1.992-5.472,4.861-5.472,8.772a4.3,4.3,0,0,0,.922,2.833,2.661,2.661,0,0,0,2.15,1.085h.36l.114.342a6.449,6.449,0,0,1,.4,1.944,9.15,9.15,0,0,1-1.68,4.974A13.392,13.392,0,0,1,22.292-29.6a13.631,13.631,0,0,1-6.876,1.711A11.057,11.057,0,0,1,6.38-31.879a14.735,14.735,0,0,1-3.214-9.575,23.135,23.135,0,0,1,1.273-7.638,24.916,24.916,0,0,1,3.812-6.955,30.07,30.07,0,0,1,6.129-5.927A40.61,40.61,0,0,1,22.6-66.543a47.857,47.857,0,0,1,10.01-2.922A64.726,64.726,0,0,1,44.086-70.436Zm6.58,48.974a24.323,24.323,0,0,0,13.406-3.586A23.535,23.535,0,0,0,72.5-34.3a25.748,25.748,0,0,0,2.86-11.666c0-7.572-2.592-13.433-7.7-17.419-5.149-4.015-13.079-6.051-23.569-6.051a54.346,54.346,0,0,0-21.1,3.815A33.574,33.574,0,0,0,9.045-55.437,22.535,22.535,0,0,0,4.166-41.454a13.762,13.762,0,0,0,2.99,8.943A9.423,9.423,0,0,0,10.682-29.8a11.7,11.7,0,0,0,4.734.909,12.646,12.646,0,0,0,6.378-1.579,12.4,12.4,0,0,0,4.3-3.929,8.181,8.181,0,0,0,1.517-4.426,4.834,4.834,0,0,0-.247-1.3A3.676,3.676,0,0,1,24.8-41.561a5.33,5.33,0,0,1-1.146-3.465c0-4.252,2.017-7.5,6-9.652,3.879-2.1,8.861-3.162,14.808-3.162a33.5,33.5,0,0,1,7.206.693,15.866,15.866,0,0,1,5.289,2.115c2.894,1.907,4.361,4.957,4.361,9.065a13.869,13.869,0,0,1-1.663,6.921,12.133,12.133,0,0,1-4.265,4.505,10.484,10.484,0,0,1-5.476,1.576,6.7,6.7,0,0,1-3.558-.736,2.845,2.845,0,0,1-1.266-2.584,7.271,7.271,0,0,1,.348-2.078l-.051-.017c.193-.772.842-2.784,1.986-6.15L48.5-47.8a6.726,6.726,0,0,0,.26-1.733c0-1.157-.406-2.7-3.918-2.7-2.74,0-4.585,1.37-5.642,4.188l0,.007c-.561,1.433-1.256,3.249-2.066,5.4s-1.443,3.842-1.879,5.026l0,.01-1.034,2.632c-2.087,5.313-4.726,9.41-7.841,12.176-3.15,2.8-6.267,4.215-9.262,4.215a8.9,8.9,0,0,1-5.965-2.047,6.805,6.805,0,0,1-2.431-5.409.483.483,0,0,0-.23-.4,1.065,1.065,0,0,0-.68-.224,9.782,9.782,0,0,0-6.178,2.1,14.441,14.441,0,0,0-4.269,5.636A18.122,18.122,0,0,0-4.2-11.562,15.989,15.989,0,0,0-.464-.934c2.458,2.908,6.219,4.382,11.18,4.382,5.728,0,11.019-2.324,15.725-6.908A49.96,49.96,0,0,0,37.885-21.611l.007-.018.282-.658.038.016.175-.349.015-.023a3.059,3.059,0,0,1,2.677-1.546,5.783,5.783,0,0,1,2.689.91l.012.007a14.066,14.066,0,0,0,2.9,1.316A13.313,13.313,0,0,0,50.666-21.462ZM271.848-69.4a30.075,30.075,0,0,1,7.828.922,15.963,15.963,0,0,1,5.784,2.805,12.4,12.4,0,0,1,4.748,10.215,18.732,18.732,0,0,1-2.752,9.847,21.686,21.686,0,0,1-6.784,7.117,14.549,14.549,0,0,1-7.79,2.617,4.5,4.5,0,0,1-2.794-.854,2.684,2.684,0,0,1-1.184-2.184,4.565,4.565,0,0,1,.412-1.5l.01-.024.012-.023c1.771-3.358,2.668-6.126,2.668-8.227a3.757,3.757,0,0,0-1.271-3.136,5.58,5.58,0,0,0-3.587-1.064,12.053,12.053,0,0,0-7.316,2.486,17.078,17.078,0,0,0-5.3,6.67,20.567,20.567,0,0,0-1.928,8.673,13.948,13.948,0,0,0,4.586,10.677c3.055,2.813,7.542,4.239,13.338,4.239a29.931,29.931,0,0,0,9.2-1.386,11.419,11.419,0,0,0,6.231-4.442c2.251-7.056,4.523-12.432,6.753-15.981a14.953,14.953,0,0,1,3.593-4.119A6.709,6.709,0,0,1,300.33-47.5c1.557,0,3.414.739,3.414,4.26a16.459,16.459,0,0,1-.533,4.169c-.346,1.32-.9,3.134-1.654,5.389l0,.008c-.744,2.108-1.278,3.771-1.586,4.943a13.55,13.55,0,0,0-.454,3.445,4.562,4.562,0,0,0,.733,2.879,3.423,3.423,0,0,0,2.715.851c3.549,0,5.975-2.036,7.416-6.222l.1-.383c2.009-6.4,4.052-11.252,6.072-14.408,2.094-3.272,4.418-4.93,6.907-4.93,1.557,0,3.414.739,3.414,4.26a14.881,14.881,0,0,1-.534,3.843c-.346,1.288-.9,3.085-1.654,5.34l0,.009c-.682,1.923-1.2,3.51-1.541,4.716a11.958,11.958,0,0,0-.5,3.2,4.665,4.665,0,0,0,1.21,3.494,4.223,4.223,0,0,0,3.084,1.176,4.646,4.646,0,0,0,3.11-1.105A17.149,17.149,0,0,0,333-26.037c.044-.067.093-.133.143-.2l1.96-5.7c3.308-9.613,5.888-16.783,7.669-21.311a48.953,48.953,0,0,1,5.561-10.781c1.971-2.693,4.194-4.059,6.608-4.059,3.6,0,4.354,2.163,4.354,3.978a12.658,12.658,0,0,1-1.651,5.582c-5.349,10.761-9.038,19.806-10.963,26.885l0,.009a22.981,22.981,0,0,0-1.108,6.064,4.792,4.792,0,0,0,.876,3.07,3.752,3.752,0,0,0,3.042,1.036,7.2,7.2,0,0,0,3.893-1.122,11.116,11.116,0,0,0,3.3-3.444l0-.006a2.924,2.924,0,0,1,.176-.237c.782-2.229,1.812-5.056,3.062-8.4l1.647-4.529a4.454,4.454,0,0,1-3.217-1.662,5.869,5.869,0,0,1-1.281-3.692,4.287,4.287,0,0,1,.382-1.916,1.537,1.537,0,0,1,1.434-.934,8.828,8.828,0,0,0,5.881-1.95,11.674,11.674,0,0,0,3.427-4.87l.008-.02c1.108-2.606,2.185-4.314,3.293-5.22a5.927,5.927,0,0,1,3.842-1.382c2.541,0,3.884,1.311,3.884,3.79a13.352,13.352,0,0,1-1.651,5.77,8.294,8.294,0,0,0-1.075,3.254c0,.407.115.628.722.628h4.888a1.622,1.622,0,0,1,1.475.97,4.56,4.56,0,0,1,.435,2.162,8.762,8.762,0,0,1-1.145,4.334,3.6,3.6,0,0,1-3.115,2.182,43.961,43.961,0,0,0-6.539.321,3.419,3.419,0,0,0-2.356,1.343,16.62,16.62,0,0,0-1.715,4.455,15.436,15.436,0,0,0-.64,3.72,6.081,6.081,0,0,0,1.772,4.667,6.81,6.81,0,0,0,4.872,1.7,9.843,9.843,0,0,0,4.744-1.162,9.289,9.289,0,0,0,3.447-3.251c2.252-7.058,4.524-12.437,6.755-15.987a14.954,14.954,0,0,1,3.593-4.119,6.709,6.709,0,0,1,4.022-1.426c1.557,0,3.414.739,3.414,4.26a16.459,16.459,0,0,1-.533,4.169c-.346,1.32-.9,3.134-1.654,5.389l0,.008c-.744,2.109-1.278,3.772-1.586,4.943a13.551,13.551,0,0,0-.454,3.445,4.561,4.561,0,0,0,.733,2.879,3.423,3.423,0,0,0,2.715.851c3.549,0,5.975-2.036,7.416-6.222l.1-.383c2.009-6.4,4.052-11.252,6.072-14.408,2.094-3.272,4.418-4.93,6.907-4.93,1.557,0,3.414.739,3.414,4.26a14.879,14.879,0,0,1-.534,3.843c-.346,1.288-.9,3.085-1.654,5.34l0,.009c-.682,1.923-1.2,3.51-1.541,4.716a11.956,11.956,0,0,0-.5,3.2,4.665,4.665,0,0,0,1.21,3.494,4.223,4.223,0,0,0,3.084,1.176,4.646,4.646,0,0,0,3.11-1.105,16.451,16.451,0,0,0,2.752-3.165,1.412,1.412,0,0,1,.234-.34c.02-.029.04-.057.06-.084,1.6-2.288,3.422-6.2,5.43-11.639a5.041,5.041,0,0,1-2.082-1.734,6.711,6.711,0,0,1-.885-3.806,9.046,9.046,0,0,1,2.524-6.114,8.2,8.2,0,0,1,6.342-2.846,22.876,22.876,0,0,1,8.6,1.728,21.208,21.208,0,0,1,6.978,4.384c1.846,1.813,2.782,3.656,2.782,5.48a11.477,11.477,0,0,1-.541,3.538c-.347,1.073-.842,2.383-1.471,3.892a40.927,40.927,0,0,0-1.533,4.133,12.531,12.531,0,0,0-.5,3.571,3.764,3.764,0,0,0,1.244,2.965,6.04,6.04,0,0,0,4.084,1.141,4.772,4.772,0,0,0,3.117-1.064,15.271,15.271,0,0,0,2.95-3.5,2.951,2.951,0,0,1,.2-.267,35.948,35.948,0,0,1,2.018-5.68,28.478,28.478,0,0,1,8.8-11.144A21.47,21.47,0,0,1,491.808-47.5c4.26,0,7.545,1.191,9.764,3.541a12.376,12.376,0,0,1,3.332,8.8,14.284,14.284,0,0,1-1.993,7.109,16.2,16.2,0,0,1-5.526,5.722,14.966,14.966,0,0,1-8.116,2.239,15.44,15.44,0,0,1-7.568-1.563,1.233,1.233,0,0,0-.332-.129.436.436,0,0,0-.368.154,1.051,1.051,0,0,0-.162.662c0,1.369.814,2.42,2.487,3.214a15.923,15.923,0,0,0,6.789,1.268,22.135,22.135,0,0,0,9.928-2.485,19.659,19.659,0,0,0,7.886-7.06l.005-.008a2.238,2.238,0,0,1,1.92-1.069,3.473,3.473,0,0,1,2.679,1.3,2.122,2.122,0,0,1,.482,2.643,72.916,72.916,0,0,1-6.538,10.213,44.422,44.422,0,0,1-7.167,7.415A28.762,28.762,0,0,1,491.6-1.013,22.852,22.852,0,0,1,483.442.5a18.229,18.229,0,0,1-7.224-1.345,13.5,13.5,0,0,1-5.294-4.061,19.186,19.186,0,0,1-3.682-7.916c-.526.929-1.049,1.816-1.563,2.65a29.665,29.665,0,0,1-6.5,7.362A14.054,14.054,0,0,1,450.072.5c-3.707,0-6.474-1.022-8.226-3.039a10.837,10.837,0,0,1-2.614-7.331,22.289,22.289,0,0,1,1.105-6.875,80.324,80.324,0,0,1,3.074-7.8c.866-1.979,1.493-3.546,1.862-4.654a9.018,9.018,0,0,0,.538-2.756,3.484,3.484,0,0,0-1.1-2.023,8.122,8.122,0,0,0-3.125-2.042c-1.148,2.473-3.153,6.691-5.968,12.552a2.018,2.018,0,0,1-.137.288,2.2,2.2,0,0,1-.167.324l-1.62,3.155a107.343,107.343,0,0,1-5.145,9.533,29.665,29.665,0,0,1-6.5,7.362A14.054,14.054,0,0,1,412.942.5a7.756,7.756,0,0,1-6.456-2.752c-1.412-1.79-2.129-4.48-2.129-7.994q0-.585.03-1.2A36.273,36.273,0,0,1,399.02-3.7,11.962,11.962,0,0,1,390.006.406a7.806,7.806,0,0,1-6.5-2.966c-1.349-1.73-2.1-4.267-2.243-7.553a34.149,34.149,0,0,1-6.542,6.929A15.99,15.99,0,0,1,364.438.5c-3.592,0-6.318-1.156-8.1-3.435a12.548,12.548,0,0,1-2.406-5.836,30.126,30.126,0,0,1-5.578,5.962A14.054,14.054,0,0,1,339.246.5c-3.108,0-5.485-.869-7.065-2.582a9.958,9.958,0,0,1-2.313-6.17,30.32,30.32,0,0,1-5.2,5.442A14.054,14.054,0,0,1,315.558.5,7.756,7.756,0,0,1,309.1-2.252c-1.412-1.79-2.128-4.48-2.128-7.994q0-.585.03-1.2A36.274,36.274,0,0,1,301.636-3.7,11.962,11.962,0,0,1,292.622.406a7.806,7.806,0,0,1-6.5-2.966c-1.5-1.93-2.268-4.864-2.268-8.72q0-.092,0-.184a40.989,40.989,0,0,1-6.758,6.875A28.373,28.373,0,0,1,268.469.075a31.852,31.852,0,0,1-10.063,1.553,26.141,26.141,0,0,1-9.679-1.716,21.272,21.272,0,0,1-7.6-5.161,21.9,21.9,0,0,1-4.908-8.619,40.1,40.1,0,0,1-1.621-11.983,46.771,46.771,0,0,1,1.295-11,46.879,46.879,0,0,1,3.884-10.38,46.976,46.976,0,0,1,6.034-9.062,41.844,41.844,0,0,1,7.754-7.052,34.361,34.361,0,0,1,8.884-4.542A29.827,29.827,0,0,1,271.848-69.4Zm1.034,32.524a13.58,13.58,0,0,0,7.25-2.459,20.7,20.7,0,0,0,6.47-6.795,17.746,17.746,0,0,0,2.607-9.329,12.618,12.618,0,0,0-1.093-5.347,11.268,11.268,0,0,0-3.277-4.084c-2.935-2.329-7.305-3.511-12.99-3.511a30.468,30.468,0,0,0-17.714,5.878,42.864,42.864,0,0,0-13.473,15.752,45.33,45.33,0,0,0-5.068,20.921c0,8.849,2.1,15.549,6.254,19.912S251.562.628,258.406.628a28.444,28.444,0,0,0,18.067-6,41.121,41.121,0,0,0,7.406-7.773,49.721,49.721,0,0,1,1.423-10.48,13.277,13.277,0,0,1-5.265,3.047,30.93,30.93,0,0,1-9.507,1.434,26.531,26.531,0,0,1-8.036-1.116,15.846,15.846,0,0,1-5.979-3.387,14.911,14.911,0,0,1-4.908-11.413,21.56,21.56,0,0,1,2.02-9.093,18.066,18.066,0,0,1,5.608-7.054,13.032,13.032,0,0,1,7.912-2.684,6.541,6.541,0,0,1,4.215,1.286,4.75,4.75,0,0,1,1.643,3.914c0,2.26-.932,5.177-2.771,8.669a3.675,3.675,0,0,0-.331,1.107,1.715,1.715,0,0,0,.79,1.388A3.525,3.525,0,0,0,272.882-36.878Zm72.839,4.969c1.943-7.141,5.654-16.247,11.031-27.064l0-.006a11.715,11.715,0,0,0,1.542-5.129c0-2.032-1.066-2.978-3.354-2.978-2.077,0-4.029,1.228-5.8,3.649a47.986,47.986,0,0,0-5.437,10.557c-1.775,4.515-4.35,11.672-7.654,21.271l-1.562,4.545a2.415,2.415,0,0,1,.432-.038,3.473,3.473,0,0,1,2.679,1.3,2.123,2.123,0,0,1,.485,2.639L336.309-19.7a107.351,107.351,0,0,1-5.145,9.533c-.113.184-.23.369-.349.551.018,6.137,2.776,9.121,8.43,9.121a13.078,13.078,0,0,0,8.472-3.083,28.79,28.79,0,0,0,6.034-6.716c-.04-.528-.06-1.079-.06-1.639A33.582,33.582,0,0,1,355.786-23.1l.087-.267a8.587,8.587,0,0,1-6.381,2.9,4.662,4.662,0,0,1-3.82-1.408,5.747,5.747,0,0,1-1.1-3.7A23.905,23.905,0,0,1,345.721-31.909Zm29.433,11.353a7.77,7.77,0,0,1-5.562-1.971,7.117,7.117,0,0,1-2.082-5.391,16.135,16.135,0,0,1,.675-3.984,17.157,17.157,0,0,1,1.858-4.761,4.42,4.42,0,0,1,3-1.759,44.011,44.011,0,0,1,6.715-.337c.878,0,1.612-.547,2.243-1.672a7.775,7.775,0,0,0,1.017-3.844,3.674,3.674,0,0,0-.317-1.692c-.208-.39-.426-.44-.593-.44h-4.888a1.526,1.526,0,0,1-1.722-1.628,9.015,9.015,0,0,1,1.181-3.7,12.4,12.4,0,0,0,1.545-5.322,2.84,2.84,0,0,0-.695-2.109,3.057,3.057,0,0,0-2.189-.681,4.887,4.887,0,0,0-3.208,1.156,13.079,13.079,0,0,0-3,4.828,12.662,12.662,0,0,1-3.713,5.271,9.8,9.8,0,0,1-6.527,2.186c-.181,0-.372.046-.54.382a3.32,3.32,0,0,0-.276,1.468,4.827,4.827,0,0,0,1.069,3.076,3.7,3.7,0,0,0,3.131,1.312h.714l-2.124,5.841c-1.046,2.8-1.937,5.235-2.657,7.258a2.425,2.425,0,0,1,.4-.033,3.473,3.473,0,0,1,2.679,1.3,2.123,2.123,0,0,1,.485,2.639L360-19.7a107.351,107.351,0,0,1-5.145,9.533l-.076.123a12.173,12.173,0,0,0,2.348,6.5,7.4,7.4,0,0,0,3,2.28,11.133,11.133,0,0,0,4.318.772,15.014,15.014,0,0,0,9.65-3.461,32.549,32.549,0,0,0,7.083-7.822l.066-.1a50.5,50.5,0,0,1,1.426-11.644,10.1,10.1,0,0,1-2.29,1.694A10.831,10.831,0,0,1,375.154-20.556Zm86.292.094a6.962,6.962,0,0,1-4.752-1.4,4.774,4.774,0,0,1-1.576-3.709,13.527,13.527,0,0,1,.538-3.855,41.864,41.864,0,0,1,1.57-4.235c.617-1.482,1.1-2.766,1.442-3.813a10.478,10.478,0,0,0,.493-3.23c0-1.545-.835-3.149-2.482-4.766a20.22,20.22,0,0,0-6.652-4.17,21.882,21.882,0,0,0-8.226-1.656,7.143,7.143,0,0,0-5.6,2.512,8.078,8.078,0,0,0-2.27,5.448,5.88,5.88,0,0,0,.712,3.244,4.205,4.205,0,0,0,2.065,1.552l.464.174-.17.466a71.241,71.241,0,0,1-4.754,10.8h.054a3.473,3.473,0,0,1,2.679,1.3,3.908,3.908,0,0,1,.391.525c2.63-5.482,4.478-9.377,5.5-11.591l.194-.42.434.161a9.546,9.546,0,0,1,3.964,2.491,4.412,4.412,0,0,1,1.344,2.677,9.987,9.987,0,0,1-.59,3.072c-.379,1.137-1.017,2.733-1.9,4.742a79.369,79.369,0,0,0-3.037,7.709,21.293,21.293,0,0,0-1.057,6.567A9.864,9.864,0,0,0,442.6-3.195C444.154-1.407,446.668-.5,450.072-.5a13.078,13.078,0,0,0,8.472-3.083,28.667,28.667,0,0,0,6.283-7.114c.7-1.134,1.416-2.368,2.132-3.672a27.223,27.223,0,0,1-.28-3.961,31.264,31.264,0,0,1,.491-5.5,12.8,12.8,0,0,1-1.981,2.078A5.811,5.811,0,0,1,461.446-20.462ZM300.608-34c.745-2.234,1.295-4.025,1.635-5.324a15.462,15.462,0,0,0,.5-3.915c0-2.922-1.378-3.26-2.414-3.26-2.374,0-4.651,1.708-6.768,5.077a68.6,68.6,0,0,0-6.2,14.389,2.316,2.316,0,0,1,.564-.068,3.386,3.386,0,0,1,2.585,1.3,2.254,2.254,0,0,1,.588,2.621A70.276,70.276,0,0,1,284.87-12.8c-.013.5-.02,1.015-.02,1.524,0,3.628.692,6.355,2.056,8.106a6.768,6.768,0,0,0,5.716,2.58,10.624,10.624,0,0,0,4.445-.942A12.176,12.176,0,0,0,300.9-4.382a37.838,37.838,0,0,0,6.4-9.927l.949.277a28.272,28.272,0,0,0-.277,3.786c0,6.558,2.481,9.746,7.584,9.746a13.078,13.078,0,0,0,8.472-3.083,28.91,28.91,0,0,0,5.787-6.338,47.168,47.168,0,0,1,2.354-13.369,13.266,13.266,0,0,1-1.486,1.488,5.682,5.682,0,0,1-3.752,1.339,5.245,5.245,0,0,1-3.778-1.456,5.612,5.612,0,0,1-1.516-4.214,12.946,12.946,0,0,1,.536-3.473c.346-1.226.87-2.832,1.559-4.773.745-2.234,1.295-4.01,1.635-5.279a13.883,13.883,0,0,0,.5-3.583c0-2.922-1.378-3.26-2.414-3.26-2.126,0-4.167,1.5-6.065,4.47-1.97,3.079-3.974,7.841-5.956,14.154l-.1.4c-1.574,4.59-4.39,6.918-8.369,6.918a4.31,4.31,0,0,1-3.489-1.217,5.483,5.483,0,0,1-.959-3.513,14.55,14.55,0,0,1,.486-3.7C299.315-30.182,299.857-31.87,300.608-34Zm97.384,0c.745-2.234,1.295-4.025,1.635-5.324a15.463,15.463,0,0,0,.5-3.915c0-2.922-1.378-3.26-2.414-3.26-2.374,0-4.651,1.708-6.768,5.077a68.854,68.854,0,0,0-6.233,14.475,2.8,2.8,0,0,1,.593-.06,3.433,3.433,0,0,1,2.578,1.244,2.181,2.181,0,0,1,.595,2.582l-1.032,2.064a99.3,99.3,0,0,1-5.212,9.523q0,.157,0,.315c0,3.628.692,6.355,2.056,8.106a6.768,6.768,0,0,0,5.716,2.58,10.624,10.624,0,0,0,4.445-.942,12.176,12.176,0,0,0,3.836-2.846,37.838,37.838,0,0,0,6.4-9.927l.949.277a28.253,28.253,0,0,0-.277,3.786c0,6.558,2.481,9.746,7.584,9.746a13.078,13.078,0,0,0,8.472-3.083A28.667,28.667,0,0,0,427.7-10.7a106.346,106.346,0,0,0,5.1-9.449l.005-.011.933-1.817q-.1.007-.206.007a3.689,3.689,0,0,1-2.336-.91,3.283,3.283,0,0,1-.981-1.215,15.093,15.093,0,0,1-2.143,2.29,5.683,5.683,0,0,1-3.752,1.339,5.245,5.245,0,0,1-3.778-1.456,5.612,5.612,0,0,1-1.516-4.214,12.943,12.943,0,0,1,.536-3.473c.346-1.226.87-2.832,1.559-4.773.745-2.234,1.295-4.01,1.635-5.279a13.883,13.883,0,0,0,.5-3.583c0-2.922-1.378-3.26-2.414-3.26-2.126,0-4.167,1.5-6.065,4.47-1.971,3.079-3.974,7.841-5.956,14.154l-.1.4c-1.574,4.59-4.39,6.918-8.369,6.918a4.31,4.31,0,0,1-3.489-1.217,5.483,5.483,0,0,1-.959-3.513,14.551,14.551,0,0,1,.486-3.7C396.7-30.182,397.24-31.869,397.992-34ZM489.27-21.086a13.983,13.983,0,0,0,7.582-2.085,15.217,15.217,0,0,0,5.19-5.37,13.3,13.3,0,0,0,1.861-6.615,11.407,11.407,0,0,0-3.06-8.117c-2.022-2.142-5.063-3.227-9.036-3.227a20.491,20.491,0,0,0-12.67,4.175,27.489,27.489,0,0,0-8.494,10.758,35.477,35.477,0,0,0-1.681,4.51,2.389,2.389,0,0,1,.473-.046,3.473,3.473,0,0,1,2.679,1.3,2.123,2.123,0,0,1,.485,2.639L470.823-19.7c-.95,1.968-1.9,3.824-2.824,5.518a18.52,18.52,0,0,0,3.708,8.659C474.353-2.192,478.3-.5,483.442-.5c5.31,0,10.439-1.955,15.244-5.812,4.844-3.887,9.371-9.718,13.455-17.33l.012-.021c.162-.269.3-.716-.371-1.481a2.483,2.483,0,0,0-1.927-.957,1.232,1.232,0,0,0-1.085.618,20.645,20.645,0,0,1-8.28,7.413,23.124,23.124,0,0,1-10.376,2.591,16.9,16.9,0,0,1-7.217-1.364c-2.03-.963-3.059-2.349-3.059-4.118a1.963,1.963,0,0,1,.4-1.312,1.443,1.443,0,0,1,1.132-.5,1.835,1.835,0,0,1,.788.241l.024.013A14.472,14.472,0,0,0,489.27-21.086Zm-204.32,6.45a71.765,71.765,0,0,0,5.25-8.992c.08-.16.321-.641-.445-1.516a2.4,2.4,0,0,0-1.833-.957,1.215,1.215,0,0,0-1.049.567A46.686,46.686,0,0,0,284.95-14.636Zm45.927,3.009c1.471-2.466,2.993-5.326,4.534-8.518l.005-.011,1.8-3.507c.162-.269.3-.716-.371-1.481a2.483,2.483,0,0,0-1.927-.957,1.164,1.164,0,0,0-.892.376l-.046.133A52.85,52.85,0,0,0,330.878-11.627Zm23.815-.213c1.431-2.417,2.911-5.2,4.408-8.305l.005-.011,1.8-3.507c.162-.269.3-.716-.371-1.481a2.483,2.483,0,0,0-1.927-.957,1.16,1.16,0,0,0-.867.351c-.4,1.137-.737,2.136-1.008,2.97l0,.013a32.6,32.6,0,0,0-2.039,10.831Q354.692-11.889,354.692-11.84Zm80-12.02c.055-.157.162-.57-.463-1.284a2.483,2.483,0,0,0-1.927-.957,1.2,1.2,0,0,0-1.024.532l-.07.1-.157.229a.723.723,0,0,0-.035.237,1.775,1.775,0,0,0,.8,1.35,2.687,2.687,0,0,0,1.706.688.988.988,0,0,0,.92-.4l.137-.267Zm33.09,7.959c.705-1.335,1.423-2.757,2.14-4.243l.005-.011,1.8-3.507c.162-.269.3-.716-.371-1.481a2.483,2.483,0,0,0-1.927-.957,1.155,1.155,0,0,0-.818.3,30.583,30.583,0,0,0-.938,7.467C467.68-17.5,467.715-16.69,467.785-15.9Zm-85.5,2.315c1.45-2.426,2.881-5.1,4.267-7.969l0-.006,1.034-2.068c.136-.272.238-.719-.439-1.46a2.445,2.445,0,0,0-1.84-.918,1.142,1.142,0,0,0-1.047.467A47.226,47.226,0,0,0,382.281-13.587ZM97.478-47.5c4.26,0,7.545,1.191,9.764,3.541a12.376,12.376,0,0,1,3.332,8.8,14.284,14.284,0,0,1-1.993,7.109,16.2,16.2,0,0,1-5.526,5.722,14.966,14.966,0,0,1-8.116,2.239,15.44,15.44,0,0,1-7.568-1.563,1.233,1.233,0,0,0-.332-.129.436.436,0,0,0-.368.154,1.051,1.051,0,0,0-.162.662c0,1.369.814,2.42,2.487,3.214a15.923,15.923,0,0,0,6.789,1.268,22.134,22.134,0,0,0,9.928-2.485,19.659,19.659,0,0,0,7.855-7.011l.639-1.825c2.122-6.241,3.675-10.6,4.614-12.945a16.118,16.118,0,0,1,2.925-5.144,5.494,5.494,0,0,1,4.119-1.609c1.819,0,3.038.4,3.728,1.222a3,3,0,0,1,.526,2.552c-.059.426.073.577.117.627s.18.205.611.205a2.024,2.024,0,0,0,1.432-.7l.008-.007a13.55,13.55,0,0,1,4.641-3.07,14.415,14.415,0,0,1,4.917-.829,11.8,11.8,0,0,1,9.355,4.027c2.3,2.651,3.459,6.271,3.459,10.761a39.771,39.771,0,0,1-1.606,11.03,7.17,7.17,0,0,0,3.1-1.046,11.459,11.459,0,0,0,3.317-3.3,1.7,1.7,0,0,1,.206-.28,35.954,35.954,0,0,1,2.016-5.673,28.479,28.479,0,0,1,8.8-11.144A21.47,21.47,0,0,1,183.77-47.5c4.26,0,7.545,1.191,9.764,3.541a12.376,12.376,0,0,1,3.332,8.8,14.285,14.285,0,0,1-1.993,7.109,16.2,16.2,0,0,1-5.526,5.722,14.966,14.966,0,0,1-8.116,2.239,15.441,15.441,0,0,1-7.567-1.563,1.232,1.232,0,0,0-.333-.129.436.436,0,0,0-.368.154,1.051,1.051,0,0,0-.162.662c0,1.369.814,2.42,2.487,3.214a15.923,15.923,0,0,0,6.789,1.268,22.134,22.134,0,0,0,9.928-2.485,19.658,19.658,0,0,0,7.886-7.06l.005-.008a2.238,2.238,0,0,1,1.92-1.069,3.473,3.473,0,0,1,2.679,1.3,2.122,2.122,0,0,1,.483,2.643,72.924,72.924,0,0,1-6.539,10.213,44.425,44.425,0,0,1-7.167,7.415,28.762,28.762,0,0,1-7.714,4.519A22.852,22.852,0,0,1,175.4.5,18.228,18.228,0,0,1,168.18-.845a13.5,13.5,0,0,1-5.294-4.061,19.72,19.72,0,0,1-4.014-9.813q-.438.458-.89.888a14.408,14.408,0,0,1-10.309,3.8h-.3A28.373,28.373,0,0,1,139.626-2.4a16.65,16.65,0,0,1-9.06,2.9,9.7,9.7,0,0,1-6.432-2.091c-1.678-1.409-2.528-3.562-2.528-6.4a14.114,14.114,0,0,1,.188-2.587V-10.9a1.051,1.051,0,0,0-.162-.662.437.437,0,0,0-.372-.154c-.184,0-.742,0-1.111,1.306l-.655,3.464c-1.187,5.81-2.233,10.452-3.108,13.8a34.467,34.467,0,0,1-3.436,8.68c-1.468,2.5-3.258,3.772-5.319,3.772a7.264,7.264,0,0,1-5.286-1.765,7.049,7.049,0,0,1-1.794-5.221,24.919,24.919,0,0,1,1.483-7.631c.863-2.589,2.275-6.374,4.2-11.27q-.625.549-1.255,1.055a28.762,28.762,0,0,1-7.714,4.519A22.852,22.852,0,0,1,89.112.5,18.228,18.228,0,0,1,81.888-.845a13.5,13.5,0,0,1-5.294-4.061,18.776,18.776,0,0,1-3.187-6.047A24.542,24.542,0,0,1,72.35-18.33,33.1,33.1,0,0,1,75.4-31.977a28.479,28.479,0,0,1,8.8-11.144A21.47,21.47,0,0,1,97.478-47.5ZM94.94-21.086a13.983,13.983,0,0,0,7.582-2.085,15.217,15.217,0,0,0,5.19-5.37,13.3,13.3,0,0,0,1.861-6.615,11.407,11.407,0,0,0-3.06-8.117c-2.022-2.142-5.063-3.227-9.036-3.227a20.491,20.491,0,0,0-12.67,4.175,27.489,27.489,0,0,0-8.494,10.758A32.1,32.1,0,0,0,73.35-18.33a20.056,20.056,0,0,0,4.028,12.8C80.023-2.192,83.971-.5,89.112-.5c5.31,0,10.439-1.955,15.244-5.812.921-.739,1.841-1.557,2.735-2.432l2.609-6.568,2.727-7.515a20.808,20.808,0,0,1-6.266,4.756A23.123,23.123,0,0,1,95.786-15.48a16.9,16.9,0,0,1-7.217-1.364c-2.029-.963-3.059-2.349-3.059-4.118a1.963,1.963,0,0,1,.4-1.312,1.443,1.443,0,0,1,1.132-.5,1.835,1.835,0,0,1,.788.241l.024.013A14.472,14.472,0,0,0,94.94-21.086Zm35.908-20.808a1.722,1.722,0,0,1-1.363-.547,1.715,1.715,0,0,1-.354-1.434l0-.016a2.043,2.043,0,0,0-.306-1.745c-.481-.574-1.478-.864-2.962-.864a4.475,4.475,0,0,0-3.4,1.3,15.449,15.449,0,0,0-2.715,4.82c-.933,2.332-2.479,6.672-4.6,12.9l-.151.431a2.329,2.329,0,0,1,.523-.058,3.473,3.473,0,0,1,2.679,1.3,2.122,2.122,0,0,1,.483,2.643A62.711,62.711,0,0,1,107.943-8.178l-.036.091C105.6-2.3,103.945,2.108,102.981,5a23.954,23.954,0,0,0-1.431,7.315,6.108,6.108,0,0,0,1.5,4.508A6.324,6.324,0,0,0,107.63,18.3a3.89,3.89,0,0,0,2.34-.787,8.037,8.037,0,0,0,2.117-2.491,33.477,33.477,0,0,0,3.332-8.428c.871-3.328,1.912-7.951,3.1-13.741l.667-3.515c.473-1.7,1.392-2.058,2.08-2.058a1.442,1.442,0,0,1,1.132.5,1.963,1.963,0,0,1,.4,1.312v.426l-.01.049a13.116,13.116,0,0,0-.178,2.44c0,2.527.731,4.423,2.172,5.633A8.736,8.736,0,0,0,130.566-.5a15.671,15.671,0,0,0,8.518-2.74,27.513,27.513,0,0,0,7.615-7.572l.149-.215h.826a13.442,13.442,0,0,0,9.619-3.528c.492-.468.975-.967,1.439-1.484-.06-.742-.09-1.512-.09-2.29a31.29,31.29,0,0,1,.526-5.684,8.908,8.908,0,0,1-6.794,3.364H151.7l.2-.647a38.982,38.982,0,0,0,1.764-11.415c0-4.242-1.082-7.643-3.215-10.107a10.285,10.285,0,0,0-3.732-2.758,12.283,12.283,0,0,0-4.867-.923,13.418,13.418,0,0,0-4.577.769,12.566,12.566,0,0,0-4.285,2.847A3,3,0,0,1,130.848-41.894Zm50.384,20.808a13.983,13.983,0,0,0,7.582-2.085,15.217,15.217,0,0,0,5.19-5.37,13.3,13.3,0,0,0,1.861-6.615,11.407,11.407,0,0,0-3.06-8.117c-2.022-2.142-5.063-3.227-9.036-3.227a20.491,20.491,0,0,0-12.67,4.175,27.489,27.489,0,0,0-8.494,10.758,35.386,35.386,0,0,0-1.731,4.68,3.2,3.2,0,0,1,.429-.028,3.9,3.9,0,0,1,2.686,1.07,2.08,2.08,0,0,1,.584,2.655,32.978,32.978,0,0,1-4.809,7.489,19.021,19.021,0,0,0,3.9,10.173C166.315-2.192,170.263-.5,175.4-.5c5.31,0,10.439-1.955,15.244-5.812,4.844-3.887,9.371-9.718,13.455-17.33l.012-.021c.162-.269.3-.716-.371-1.482a2.483,2.483,0,0,0-1.927-.957,1.232,1.232,0,0,0-1.085.618,20.645,20.645,0,0,1-8.28,7.413,23.123,23.123,0,0,1-10.376,2.591,16.894,16.894,0,0,1-7.217-1.364c-2.03-.963-3.059-2.349-3.059-4.118a1.963,1.963,0,0,1,.4-1.312,1.443,1.443,0,0,1,1.132-.5,1.835,1.835,0,0,1,.788.241l.024.013A14.472,14.472,0,0,0,181.232-21.086Zm-72.3,10.43a65.689,65.689,0,0,0,8.884-12.987l.012-.021c.162-.269.3-.716-.371-1.482a2.483,2.483,0,0,0-1.927-.957,1.218,1.218,0,0,0-1.056.576l-3.838,10.576Zm50.74-6.486a32.723,32.723,0,0,0,4.006-6.479l0-.009a1.106,1.106,0,0,0-.359-1.474,2.889,2.889,0,0,0-2.014-.81,1.431,1.431,0,0,0-.735.158,30.575,30.575,0,0,0-.927,7.426C159.642-17.93,159.65-17.533,159.667-17.142ZM94-37.254a4.931,4.931,0,0,1,3.542,1.22A4.17,4.17,0,0,1,98.824-32.9a5.534,5.534,0,0,1-1.791,3.973A6.174,6.174,0,0,1,92.5-27.136a5.07,5.07,0,0,1-3.636-1.22,4.17,4.17,0,0,1-1.282-3.134,5.479,5.479,0,0,1,1.8-4.025A6.388,6.388,0,0,1,94-37.254Zm-1.5,9.118a5.142,5.142,0,0,0,3.829-1.5,4.513,4.513,0,0,0,1.5-3.265,3.165,3.165,0,0,0-.974-2.412A3.979,3.979,0,0,0,94-36.254,5.353,5.353,0,0,0,90.071-34.8a4.457,4.457,0,0,0-1.493,3.307,3.165,3.165,0,0,0,.974,2.412A4.124,4.124,0,0,0,92.5-28.136Zm87.8-9.118a4.931,4.931,0,0,1,3.542,1.22,4.17,4.17,0,0,1,1.282,3.134,5.534,5.534,0,0,1-1.791,3.973,6.175,6.175,0,0,1-4.537,1.791,5.07,5.07,0,0,1-3.636-1.22,4.17,4.17,0,0,1-1.282-3.134,5.479,5.479,0,0,1,1.8-4.025A6.387,6.387,0,0,1,180.292-37.254Zm-1.5,9.118a5.142,5.142,0,0,0,3.83-1.5,4.513,4.513,0,0,0,1.5-3.265,3.165,3.165,0,0,0-.974-2.412,3.979,3.979,0,0,0-2.85-.942,5.353,5.353,0,0,0-3.929,1.457,4.457,4.457,0,0,0-1.493,3.307,3.165,3.165,0,0,0,.974,2.412A4.124,4.124,0,0,0,178.788-28.136ZM488.33-37.254a4.931,4.931,0,0,1,3.542,1.22,4.17,4.17,0,0,1,1.282,3.134,5.533,5.533,0,0,1-1.791,3.973,6.174,6.174,0,0,1-4.537,1.791,5.07,5.07,0,0,1-3.636-1.22,4.17,4.17,0,0,1-1.282-3.134,5.479,5.479,0,0,1,1.8-4.025A6.388,6.388,0,0,1,488.33-37.254Zm-1.5,9.118a5.142,5.142,0,0,0,3.829-1.5,4.513,4.513,0,0,0,1.5-3.265,3.165,3.165,0,0,0-.974-2.412,3.979,3.979,0,0,0-2.85-.942A5.353,5.353,0,0,0,484.4-34.8a4.457,4.457,0,0,0-1.493,3.307,3.165,3.165,0,0,0,.974,2.412A4.124,4.124,0,0,0,486.826-28.136Zm-351.654-5.64a5.483,5.483,0,0,1,4.273,1.576,5.645,5.645,0,0,1,1.4,3.906,9.537,9.537,0,0,1-1.087,4.266,10.055,10.055,0,0,1-3.016,3.609,7.208,7.208,0,0,1-4.387,1.462,5.053,5.053,0,0,1-4.1-1.59,6.044,6.044,0,0,1-1.291-3.986,9.864,9.864,0,0,1,2.321-6.331A7.315,7.315,0,0,1,135.172-33.776Zm-2.82,13.818a6.229,6.229,0,0,0,3.791-1.264,9.066,9.066,0,0,0,2.718-3.253,8.551,8.551,0,0,0,.981-3.818,4.616,4.616,0,0,0-1.141-3.238,4.544,4.544,0,0,0-3.529-1.244,6.279,6.279,0,0,0-5.111,2.541,8.889,8.889,0,0,0-2.1,5.7,5.078,5.078,0,0,0,1.059,3.346A4.118,4.118,0,0,0,132.352-19.958Z" transform="translate(-6053 -6459)"/><path d="M44.086-69.936q15.98,0,23.876,6.157t7.9,17.813a26.124,26.124,0,0,1-2.914,11.891,23.921,23.921,0,0,1-8.6,9.447,24.7,24.7,0,0,1-13.677,3.666,13.728,13.728,0,0,1-4.136-.517,14.5,14.5,0,0,1-3.008-1.363,5.386,5.386,0,0,0-2.444-.846,2.576,2.576,0,0,0-2.256,1.316l-.47.94.282-.658-.282.658A50.223,50.223,0,0,1,26.79-3.1q-7.238,7.05-16.074,7.05Q3.008,3.948-.846-.611A16.4,16.4,0,0,1-4.7-11.562a18.535,18.535,0,0,1,1.6-7.567,14.867,14.867,0,0,1,4.418-5.828A10.226,10.226,0,0,1,7.8-27.166a1.562,1.562,0,0,1,.987.329.983.983,0,0,1,.423.8,6.3,6.3,0,0,0,2.256,5.029,8.38,8.38,0,0,0,5.64,1.927q4.324,0,8.93-4.089t7.708-11.985l1.034-2.632q.658-1.786,1.88-5.029t2.068-5.4q1.692-4.512,6.11-4.512t4.418,3.2a7.2,7.2,0,0,1-.282,1.88l-1.128,3.29q-1.692,4.982-1.974,6.11l.282-.658a7.662,7.662,0,0,0-.564,2.632,2.367,2.367,0,0,0,1.034,2.162,6.316,6.316,0,0,0,3.29.658,9.946,9.946,0,0,0,5.217-1.5,11.587,11.587,0,0,0,4.089-4.324,13.317,13.317,0,0,0,1.6-6.674q0-5.922-4.136-8.648T44.462-57.34q-8.836,0-14.57,3.1t-5.734,9.212a4.823,4.823,0,0,0,1.034,3.149,3.159,3.159,0,0,0,2.538,1.269,6.046,6.046,0,0,1,.376,1.786,8.626,8.626,0,0,1-1.6,4.7,12.84,12.84,0,0,1-4.465,4.089,13.079,13.079,0,0,1-6.627,1.645A10.535,10.535,0,0,1,6.768-32.2a14.185,14.185,0,0,1-3.1-9.259A22.922,22.922,0,0,1,8.648-55.742Q13.63-62.228,22.8-66.082A54.587,54.587,0,0,1,44.086-69.936ZM89.112,0q-7.99,0-12.126-5.217T72.85-18.33a32.45,32.45,0,0,1,3.008-13.442,27.857,27.857,0,0,1,8.648-10.951A20.888,20.888,0,0,1,97.478-47q6.2,0,9.4,3.384a11.84,11.84,0,0,1,3.2,8.46,13.729,13.729,0,0,1-1.927,6.862,15.64,15.64,0,0,1-5.358,5.546,14.41,14.41,0,0,1-7.849,2.162,14.875,14.875,0,0,1-7.332-1.5,1.443,1.443,0,0,0-.564-.188.941.941,0,0,0-.752.329,1.484,1.484,0,0,0-.282.987q0,2.35,2.773,3.666a16.333,16.333,0,0,0,7,1.316,22.526,22.526,0,0,0,10.152-2.538,20.061,20.061,0,0,0,8.084-7.238,1.73,1.73,0,0,1,1.5-.846,2.981,2.981,0,0,1,2.3,1.128,1.673,1.673,0,0,1,.423,2.068q-6.2,11.562-13.583,17.484T89.112,0ZM92.5-27.636a5.667,5.667,0,0,0,4.183-1.645A5.031,5.031,0,0,0,98.324-32.9,3.672,3.672,0,0,0,97.2-35.673,4.435,4.435,0,0,0,94-36.754a5.879,5.879,0,0,0-4.277,1.6,4.975,4.975,0,0,0-1.645,3.666,3.672,3.672,0,0,0,1.128,2.773A4.576,4.576,0,0,0,92.5-27.636Zm67.4,1.88a1.481,1.481,0,0,1,1.41-.658,3.4,3.4,0,0,1,2.35.94,1.6,1.6,0,0,1,.47,2.068,30.709,30.709,0,0,1-6.486,9.212,13.865,13.865,0,0,1-9.964,3.666h-.564a27.88,27.88,0,0,1-7.755,7.708A16.088,16.088,0,0,1,130.566,0a9.178,9.178,0,0,1-6.11-1.974q-2.35-1.974-2.35-6.016a13.529,13.529,0,0,1,.188-2.538V-10.9a1.484,1.484,0,0,0-.282-.987.941.941,0,0,0-.752-.329q-1.128,0-1.6,1.692L119-7.05q-1.786,8.742-3.1,13.771a33.812,33.812,0,0,1-3.384,8.554Q110.45,18.8,107.63,18.8q-6.58,0-6.58-6.486a24.32,24.32,0,0,1,1.457-7.473Q103.964.47,107.442-8.272l2.726-6.862,3.854-10.622.658-1.88q3.2-9.4,4.606-12.925a15.822,15.822,0,0,1,2.82-4.982A4.992,4.992,0,0,1,125.866-47q4.324,0,3.76,3.2a1.235,1.235,0,0,0,.235,1.034,1.242,1.242,0,0,0,.987.376,2.516,2.516,0,0,0,1.786-.846A13,13,0,0,1,137.1-46.2a13.852,13.852,0,0,1,4.747-.8,11.271,11.271,0,0,1,8.977,3.854q3.337,3.854,3.337,10.434a39.3,39.3,0,0,1-1.786,11.562Q156.7-21.15,159.894-25.756Zm-27.542,6.3a6.688,6.688,0,0,0,4.089-1.363,9.517,9.517,0,0,0,2.867-3.431,9,9,0,0,0,1.034-4.042,5.138,5.138,0,0,0-1.269-3.572,4.991,4.991,0,0,0-3.9-1.41,6.808,6.808,0,0,0-5.5,2.726,9.335,9.335,0,0,0-2.209,6.016,5.536,5.536,0,0,0,1.175,3.666A4.565,4.565,0,0,0,132.352-19.458ZM175.4,0q-7.99,0-12.126-5.217T159.142-18.33a32.45,32.45,0,0,1,3.008-13.442A27.857,27.857,0,0,1,170.8-42.723,20.888,20.888,0,0,1,183.77-47q6.2,0,9.4,3.384a11.84,11.84,0,0,1,3.2,8.46,13.729,13.729,0,0,1-1.927,6.862,15.64,15.64,0,0,1-5.358,5.546,14.41,14.41,0,0,1-7.849,2.162,14.875,14.875,0,0,1-7.332-1.5,1.443,1.443,0,0,0-.564-.188.941.941,0,0,0-.752.329,1.484,1.484,0,0,0-.282.987q0,2.35,2.773,3.666a16.333,16.333,0,0,0,7,1.316,22.526,22.526,0,0,0,10.152-2.538,20.061,20.061,0,0,0,8.084-7.238,1.73,1.73,0,0,1,1.5-.846,2.981,2.981,0,0,1,2.3,1.128,1.673,1.673,0,0,1,.423,2.068q-6.2,11.562-13.583,17.484T175.4,0Zm3.384-27.636a5.667,5.667,0,0,0,4.183-1.645,5.031,5.031,0,0,0,1.645-3.619,3.672,3.672,0,0,0-1.128-2.773,4.435,4.435,0,0,0-3.2-1.081,5.879,5.879,0,0,0-4.277,1.6,4.975,4.975,0,0,0-1.645,3.666,3.672,3.672,0,0,0,1.128,2.773A4.576,4.576,0,0,0,178.788-27.636ZM258.406,1.128q-10.528,0-16.92-6.721T235.094-25.85A45.617,45.617,0,0,1,240.217-47a43.161,43.161,0,0,1,13.63-15.933,30.82,30.82,0,0,1,18-5.969q8.742,0,13.3,3.619a11.875,11.875,0,0,1,4.559,9.823,18.157,18.157,0,0,1-2.679,9.588,21.094,21.094,0,0,1-6.627,6.956,14,14,0,0,1-7.52,2.538,3.992,3.992,0,0,1-2.491-.752,2.2,2.2,0,0,1-.987-1.786,4.31,4.31,0,0,1,.376-1.316q2.726-5.17,2.726-8.46a4.259,4.259,0,0,0-1.457-3.525,6.033,6.033,0,0,0-3.9-1.175,12.487,12.487,0,0,0-7.614,2.585,17.492,17.492,0,0,0-5.452,6.862,20.967,20.967,0,0,0-1.974,8.883,14.368,14.368,0,0,0,4.747,11.045q4.747,4.371,13.677,4.371a30.29,30.29,0,0,0,9.353-1.41,11.832,11.832,0,0,0,6.533-4.7,1.73,1.73,0,0,1,1.5-.846,2.9,2.9,0,0,1,2.209,1.128,1.811,1.811,0,0,1,.517,2.068q-6.11,12.314-13.865,18.424A28.8,28.8,0,0,1,258.406,1.128Zm75.012-26.884a1.73,1.73,0,0,1,1.5-.846,2.981,2.981,0,0,1,2.3,1.128,1.673,1.673,0,0,1,.423,2.068l-1.786,3.478a106.35,106.35,0,0,1-5.123,9.494A29.031,29.031,0,0,1,324.347-3.2,13.506,13.506,0,0,1,315.558,0q-8.084,0-8.084-10.246a28.629,28.629,0,0,1,.282-3.854A38.154,38.154,0,0,1,301.27-4.042a11.432,11.432,0,0,1-8.648,3.948,7.3,7.3,0,0,1-6.11-2.773Q284.35-5.64,284.35-11.28a48.688,48.688,0,0,1,2.068-14.476q3.384-10.622,6.721-15.933T300.33-47q2.914,0,2.914,3.76a15.887,15.887,0,0,1-.517,4.042q-.517,1.974-1.645,5.358-1.128,3.2-1.6,4.982a13.985,13.985,0,0,0-.47,3.572,5,5,0,0,0,.846,3.2,3.844,3.844,0,0,0,3.1,1.034q5.64,0,7.9-6.58l.094-.376Q313.96-37.6,316.968-42.3t6.486-4.7q2.914,0,2.914,3.76a14.315,14.315,0,0,1-.517,3.713q-.517,1.927-1.645,5.311-1.034,2.914-1.551,4.747a12.392,12.392,0,0,0-.517,3.337,5.115,5.115,0,0,0,1.363,3.854,4.741,4.741,0,0,0,3.431,1.316,5.172,5.172,0,0,0,3.431-1.222A17.545,17.545,0,0,0,333.418-25.756ZM339.246,0q-8.93,0-8.93-9.682a49.5,49.5,0,0,1,3.2-16.074l2.068-6.016q4.982-14.476,7.661-21.291a48.241,48.241,0,0,1,5.5-10.669q2.82-3.854,6.2-3.854,3.854,0,3.854,3.478a12.131,12.131,0,0,1-1.6,5.358q-8.084,16.262-11,26.978a23.335,23.335,0,0,0-1.128,6.2,5.245,5.245,0,0,0,.987,3.384,4.185,4.185,0,0,0,3.431,1.222q4.512,0,7.614-4.794a1.73,1.73,0,0,1,1.5-.846,2.981,2.981,0,0,1,2.3,1.128,1.673,1.673,0,0,1,.423,2.068l-1.786,3.478a106.35,106.35,0,0,1-5.123,9.494A29.031,29.031,0,0,1,348.035-3.2,13.506,13.506,0,0,1,339.246,0Zm25.192,0q-5.17,0-7.708-3.243t-2.538-8.7a32.94,32.94,0,0,1,2.068-11Q357.482-26.7,360.4-34.5l1.88-5.17a4.2,4.2,0,0,1-3.525-1.5,5.356,5.356,0,0,1-1.175-3.384,3.784,3.784,0,0,1,.329-1.692,1.054,1.054,0,0,1,.987-.658,9.272,9.272,0,0,0,6.2-2.068,12.113,12.113,0,0,0,3.572-5.076,13.456,13.456,0,0,1,3.149-5.029,5.415,5.415,0,0,1,3.525-1.269q3.384,0,3.384,3.29a12.815,12.815,0,0,1-1.6,5.546A8.672,8.672,0,0,0,376-48.034q0,1.128,1.222,1.128h4.888a1.145,1.145,0,0,1,1.034.705,4.127,4.127,0,0,1,.376,1.927,8.231,8.231,0,0,1-1.081,4.089,3.123,3.123,0,0,1-2.679,1.927,44.1,44.1,0,0,0-6.627.329,3.924,3.924,0,0,0-2.679,1.551,16.922,16.922,0,0,0-1.786,4.606,15.83,15.83,0,0,0-.658,3.854,6.61,6.61,0,0,0,1.927,5.029,7.257,7.257,0,0,0,5.217,1.833,10.29,10.29,0,0,0,4.982-1.222,9.748,9.748,0,0,0,3.666-3.478,1.641,1.641,0,0,1,1.5-.752,2.942,2.942,0,0,1,2.209,1.081,1.735,1.735,0,0,1,.517,2.021L387-21.338a97.429,97.429,0,0,1-5.405,9.823A32.894,32.894,0,0,1,374.4-3.572,15.433,15.433,0,0,1,364.438,0ZM430.8-25.756a1.73,1.73,0,0,1,1.5-.846,2.981,2.981,0,0,1,2.3,1.128,1.673,1.673,0,0,1,.423,2.068l-1.786,3.478a106.35,106.35,0,0,1-5.123,9.494A29.031,29.031,0,0,1,421.731-3.2,13.506,13.506,0,0,1,412.942,0q-8.084,0-8.084-10.246a28.629,28.629,0,0,1,.282-3.854,38.154,38.154,0,0,1-6.486,10.058,11.432,11.432,0,0,1-8.648,3.948,7.3,7.3,0,0,1-6.11-2.773q-2.162-2.773-2.162-8.413A48.688,48.688,0,0,1,383.8-25.756q3.384-10.622,6.721-15.933T397.714-47q2.914,0,2.914,3.76a15.887,15.887,0,0,1-.517,4.042q-.517,1.974-1.645,5.358-1.128,3.2-1.6,4.982a13.985,13.985,0,0,0-.47,3.572,5,5,0,0,0,.846,3.2,3.844,3.844,0,0,0,3.1,1.034q5.64,0,7.9-6.58l.094-.376q3.008-9.588,6.016-14.288t6.486-4.7q2.914,0,2.914,3.76a14.315,14.315,0,0,1-.517,3.713q-.517,1.927-1.645,5.311-1.034,2.914-1.551,4.747a12.392,12.392,0,0,0-.517,3.337,5.115,5.115,0,0,0,1.363,3.854,4.741,4.741,0,0,0,3.431,1.316,5.172,5.172,0,0,0,3.431-1.222A17.545,17.545,0,0,0,430.8-25.756Zm37.13,0a1.73,1.73,0,0,1,1.5-.846,2.981,2.981,0,0,1,2.3,1.128,1.673,1.673,0,0,1,.423,2.068l-1.786,3.478a106.351,106.351,0,0,1-5.123,9.494A29.031,29.031,0,0,1,458.861-3.2,13.506,13.506,0,0,1,450.072,0q-5.358,0-7.849-2.867a10.305,10.305,0,0,1-2.491-7,21.691,21.691,0,0,1,1.081-6.721,79.463,79.463,0,0,1,3.055-7.755q1.316-3.008,1.88-4.7a9.456,9.456,0,0,0,.564-2.914,4.022,4.022,0,0,0-1.222-2.35,9.023,9.023,0,0,0-3.76-2.35q-1.692,3.666-6.3,13.254a1.463,1.463,0,0,1-1.5.94,3.191,3.191,0,0,1-2.021-.8A2.254,2.254,0,0,1,430.52-25a1.016,1.016,0,0,1,.282-.752q2.538-3.572,5.734-12.314a4.673,4.673,0,0,1-2.3-1.739,6.309,6.309,0,0,1-.8-3.525,8.525,8.525,0,0,1,2.4-5.781,7.682,7.682,0,0,1,5.969-2.679,22.277,22.277,0,0,1,8.413,1.692,20.618,20.618,0,0,1,6.815,4.277q2.632,2.585,2.632,5.123a10.926,10.926,0,0,1-.517,3.384q-.517,1.6-1.457,3.854a41.187,41.187,0,0,0-1.551,4.183,12.968,12.968,0,0,0-.517,3.713,4.275,4.275,0,0,0,1.41,3.337,6.47,6.47,0,0,0,4.418,1.269,5.3,5.3,0,0,0,3.431-1.175A15.671,15.671,0,0,0,467.932-25.756ZM483.442,0q-7.99,0-12.126-5.217T467.18-18.33a32.45,32.45,0,0,1,3.008-13.442,27.857,27.857,0,0,1,8.648-10.951A20.887,20.887,0,0,1,491.808-47q6.2,0,9.4,3.384a11.84,11.84,0,0,1,3.2,8.46,13.729,13.729,0,0,1-1.927,6.862,15.64,15.64,0,0,1-5.358,5.546,14.409,14.409,0,0,1-7.849,2.162,14.875,14.875,0,0,1-7.332-1.5,1.443,1.443,0,0,0-.564-.188.941.941,0,0,0-.752.329,1.484,1.484,0,0,0-.282.987q0,2.35,2.773,3.666a16.333,16.333,0,0,0,7,1.316,22.526,22.526,0,0,0,10.152-2.538,20.061,20.061,0,0,0,8.084-7.238,1.73,1.73,0,0,1,1.5-.846,2.981,2.981,0,0,1,2.3,1.128,1.673,1.673,0,0,1,.423,2.068Q506.378-11.844,499-5.922T483.442,0Zm3.384-27.636a5.667,5.667,0,0,0,4.183-1.645,5.031,5.031,0,0,0,1.645-3.619,3.672,3.672,0,0,0-1.128-2.773,4.435,4.435,0,0,0-3.2-1.081,5.879,5.879,0,0,0-4.277,1.6,4.975,4.975,0,0,0-1.645,3.666,3.672,3.672,0,0,0,1.128,2.773A4.576,4.576,0,0,0,486.826-27.636Z" transform="translate(-6053 -6459)" fill="#fff"/></g></svg>