<svg xmlns="http://www.w3.org/2000/svg" width="174.88" height="52.188" viewBox="0 0 174.88 52.188"><g transform="translate(-719.507 -1226.312)"><path d="M14.07,0a8.594,8.594,0,0,1-6.6-2.982Q4.757-5.963,4.757-11.926q0-10.586,9.045-27.2a13.07,13.07,0,0,0-3.417-.536,8.743,8.743,0,0,0-5.527,1.742,5.25,5.25,0,0,0-2.245,4.288,3.821,3.821,0,0,0,.737,2.379,2.2,2.2,0,0,0,1.809.971,4.309,4.309,0,0,1,.268,1.273,6.148,6.148,0,0,1-1.139,3.35,9.152,9.152,0,0,1-3.183,2.915,9.322,9.322,0,0,1-4.724,1.172,7.329,7.329,0,0,1-6.164-2.881,11.106,11.106,0,0,1-2.211-6.968A15.136,15.136,0,0,1-8.878-40.6,21.531,21.531,0,0,1-.235-47.336a29.537,29.537,0,0,1,12.362-2.512q4.824,0,6.8,1.608A5.852,5.852,0,0,1,20.9-43.416a23.847,23.847,0,0,1-.536,4.556q-1.742,8.509-2.513,13a45.092,45.092,0,0,0-.771,7.3q0,3.618,1.608,3.618,1.943,0,3.551-2.915A87.115,87.115,0,0,0,26.4-27.269l.6-1.675q2.68-7.035,4.824-11.457a27.039,27.039,0,0,1,5.394-7.6,10.524,10.524,0,0,1,7.6-3.182q4.422,0,6.834,2.244a7.109,7.109,0,0,1,2.412,5.394,7.316,7.316,0,0,1-2.111,5.226,7.545,7.545,0,0,1-5.729,2.211,6.138,6.138,0,0,1-3.216-.8,5.281,5.281,0,0,0-2.077-.536,5.5,5.5,0,0,0-4.154,2.278,25.917,25.917,0,0,0-3.551,5.628Q31.624-26.2,29.346-20.5q-2.68,6.7-4.69,10.754a28.37,28.37,0,0,1-4.69,6.9A7.99,7.99,0,0,1,14.07,0ZM46.3-36.247a7.277,7.277,0,0,1-4.288-1.139A4.126,4.126,0,0,1,40.4-41q0-6.164,6.7-6.164,6.3,0,5.829,5.427Q52.394-36.247,46.3-36.247ZM38.86,0a5.176,5.176,0,0,1-4.69-2.278,11.1,11.1,0,0,1-1.474-6.1,33.6,33.6,0,0,1,1.675-9.983,57.653,57.653,0,0,1,4.69-11.457Q41.272-33.5,44.019-33.5q2.278,0,2.278,3.015a10.923,10.923,0,0,1-.4,2.881,37.354,37.354,0,0,1-1.206,3.551q-.134.335-.536,1.608t-.637,2.278a8.043,8.043,0,0,0-.235,1.809,3.523,3.523,0,0,0,.8,2.479,2.86,2.86,0,0,0,2.211.871,3.778,3.778,0,0,0,2.445-.838,11.627,11.627,0,0,0,2.178-2.513,1.233,1.233,0,0,1,1.072-.6,2.1,2.1,0,0,1,1.574.771,1.236,1.236,0,0,1,.369,1.441,27.1,27.1,0,0,0-1.407,2.814q-1.876,3.886-3.551,6.7a19.882,19.882,0,0,1-4.288,5.025A8.8,8.8,0,0,1,38.86,0ZM76.849-18.358a1.233,1.233,0,0,1,1.072-.6,2.065,2.065,0,0,1,1.575.8,1.291,1.291,0,0,1,.368,1.474,67.255,67.255,0,0,1-4.02,7.337,24.446,24.446,0,0,1-6.131,6.265A15.767,15.767,0,0,1,60.032-.067q-5.628,0-8.409-3.116a11.2,11.2,0,0,1-2.781-7.739,14.408,14.408,0,0,1,2.01-7.437l.268-.4q.938-1.273,3.35-4.958,2.479-3.752,4.188-6.03A20.965,20.965,0,0,1,62.344-33.6,6.457,6.457,0,0,1,66.4-35.175a6.7,6.7,0,0,1,4.556,1.407,3.914,3.914,0,0,1,1.541,3.149,1.427,1.427,0,0,1-.569,1.139,11.655,11.655,0,0,1-1.642,1.072,9.733,9.733,0,0,0-1.943,1.273,1.981,1.981,0,0,0-.67,1.541,13.13,13.13,0,0,0,1.407,3.417,33.2,33.2,0,0,1,3.015,7.37,4.188,4.188,0,0,0,2.513-.971A12.132,12.132,0,0,0,76.849-18.358ZM57.62-13.869A4.328,4.328,0,0,0,61-15.243a5.05,5.05,0,0,0,1.239-3.517,11.167,11.167,0,0,0-1.474-5.092q-.268-.67-.737-.67-.4,0-.871.67-2.278,3.35-5.293,7.169a2.449,2.449,0,0,0,1.039,2.01A4.309,4.309,0,0,0,57.62-13.869ZM88.708-36.247a7.277,7.277,0,0,1-4.288-1.139A4.126,4.126,0,0,1,82.812-41q0-6.164,6.7-6.164,6.3,0,5.829,5.427Q94.805-36.247,88.708-36.247ZM81.271,0a5.176,5.176,0,0,1-4.69-2.278,11.1,11.1,0,0,1-1.474-6.1,33.6,33.6,0,0,1,1.675-9.983,57.652,57.652,0,0,1,4.69-11.457Q83.683-33.5,86.43-33.5q2.278,0,2.278,3.015a10.924,10.924,0,0,1-.4,2.881A37.352,37.352,0,0,1,87.1-24.053q-.134.335-.536,1.608t-.636,2.278a8.043,8.043,0,0,0-.234,1.809,3.523,3.523,0,0,0,.8,2.479,2.86,2.86,0,0,0,2.211.871,3.778,3.778,0,0,0,2.445-.838,11.627,11.627,0,0,0,2.178-2.513,1.233,1.233,0,0,1,1.072-.6,2.1,2.1,0,0,1,1.575.771,1.236,1.236,0,0,1,.368,1.441,27.1,27.1,0,0,0-1.407,2.814q-1.876,3.886-3.551,6.7A19.882,19.882,0,0,1,87.1-2.211,8.8,8.8,0,0,1,81.271,0Zm43.885-18.358a1.056,1.056,0,0,1,1.005-.469,2.422,2.422,0,0,1,1.675.67,1.143,1.143,0,0,1,.335,1.474,21.888,21.888,0,0,1-4.623,6.566,9.882,9.882,0,0,1-7.1,2.613h-.8a19.683,19.683,0,0,1-6,5.494A13.994,13.994,0,0,1,102.51,0a9.854,9.854,0,0,1-7.5-3.049,11.461,11.461,0,0,1-2.881-8.208,23.989,23.989,0,0,1,2.446-10.285,23.793,23.793,0,0,1,6.666-8.576A14.547,14.547,0,0,1,110.55-33.5a9.411,9.411,0,0,1,7.1,2.78q2.68,2.781,2.68,8.744a23.887,23.887,0,0,1-1,6.9h.469Q122.878-15.075,125.156-18.358Zm-18.827,4.489a4.767,4.767,0,0,0,2.914-.971,6.783,6.783,0,0,0,2.044-2.446,6.417,6.417,0,0,0,.737-2.881,3.662,3.662,0,0,0-.9-2.546,3.557,3.557,0,0,0-2.781-1,4.852,4.852,0,0,0-3.919,1.943,6.654,6.654,0,0,0-1.575,4.288,3.946,3.946,0,0,0,.838,2.613A3.254,3.254,0,0,0,106.329-13.869ZM127.836,0a4.711,4.711,0,0,1-3.585-1.373,4.9,4.9,0,0,1-1.306-3.518,51.416,51.416,0,0,1,2.211-13.467,56.352,56.352,0,0,1,4.02-10.72q2.278-4.422,4.02-4.422,2.211,0,2.211,2.546,0,2.479,1.34,2.479a3.319,3.319,0,0,0,2.144-1.206Q142.844-33.5,147-33.5a5.677,5.677,0,0,1,4.489,1.742,6.427,6.427,0,0,1,1.541,4.422,8.188,8.188,0,0,1-.268,2.178q-.268.972-.8,2.512-.536,1.34-.8,2.278a7.547,7.547,0,0,0-.268,2.077,3.579,3.579,0,0,0,.771,2.546,3.257,3.257,0,0,0,2.445.8,3.778,3.778,0,0,0,2.445-.838,11.17,11.17,0,0,0,2.178-2.58,1.233,1.233,0,0,1,1.072-.6,2.125,2.125,0,0,1,1.641.8,1.192,1.192,0,0,1,.3,1.474L160.465-14.2a75.8,75.8,0,0,1-3.652,6.767,20.692,20.692,0,0,1-4.556,5.159A9.627,9.627,0,0,1,145.993,0a4.927,4.927,0,0,1-4.322-1.943A8.512,8.512,0,0,1,140.3-6.968a15.285,15.285,0,0,1,.469-3.786q.469-1.843,1.273-4.187.134-.4.6-1.91a8.671,8.671,0,0,0,.469-2.446,2.223,2.223,0,0,0-.67-1.742,2.706,2.706,0,0,0-1.876-.6A5.039,5.039,0,0,0,137.015-20a11.724,11.724,0,0,0-2.68,4.288,15.625,15.625,0,0,0-1.005,5.594V-7.1Q133.33,0,127.836,0Z" transform="translate(732 1278)"/><path d="M145.993.5a5.418,5.418,0,0,1-4.73-2.154A9.035,9.035,0,0,1,139.8-6.968a15.857,15.857,0,0,1,.484-3.909c.314-1.236.747-2.657,1.285-4.226.086-.259.288-.9.6-1.9a8.246,8.246,0,0,0,.446-2.3,1.736,1.736,0,0,0-.5-1.37,2.243,2.243,0,0,0-1.542-.475,4.523,4.523,0,0,0-3.2,1.5,11.285,11.285,0,0,0-2.563,4.108,15.2,15.2,0,0,0-.972,5.417V-7.1a9.133,9.133,0,0,1-1.478,5.632A5.38,5.38,0,0,1,127.836.5a5.211,5.211,0,0,1-3.947-1.529,5.4,5.4,0,0,1-1.444-3.862,34.923,34.923,0,0,1,.233-3.881A10.826,10.826,0,0,1,116.446-7h-.552a20.2,20.2,0,0,1-6,5.426A14.551,14.551,0,0,1,102.51.5a10.378,10.378,0,0,1-7.867-3.205A10.674,10.674,0,0,1,92.08-7.426q-.132.227-.263.446a20.473,20.473,0,0,1-4.395,5.151A9.327,9.327,0,0,1,81.271.5a5.667,5.667,0,0,1-5.11-2.506,10.543,10.543,0,0,1-1.5-4.926,28.608,28.608,0,0,1-4.651,4.252A16.326,16.326,0,0,1,60.032.433c-3.883,0-6.838-1.1-8.782-3.283a11.12,11.12,0,0,1-2.165-3.609,20.591,20.591,0,0,1-4.073,4.63A9.327,9.327,0,0,1,38.86.5a5.667,5.667,0,0,1-5.11-2.506A11.628,11.628,0,0,1,32.2-8.375a34.249,34.249,0,0,1,1.7-10.132,58.4,58.4,0,0,1,4.738-11.565C40.2-32.679,42.008-34,44.019-34a2.488,2.488,0,0,1,2.107.952,4.156,4.156,0,0,1,.671,2.563,11.474,11.474,0,0,1-.42,3.013c-.271.995-.682,2.206-1.222,3.6l0,.005c-.084.211-.26.74-.523,1.573s-.474,1.587-.626,2.241a7.586,7.586,0,0,0-.221,1.7,3.065,3.065,0,0,0,.671,2.14,2.364,2.364,0,0,0,1.844.71,3.263,3.263,0,0,0,2.132-.727,10.089,10.089,0,0,0,1.727-1.9c.086-.158.175-.316.267-.472l.015-.024.282-.421c.617-.838,1.739-2.5,3.334-4.935,1.652-2.5,3.066-4.537,4.206-6.056a21.563,21.563,0,0,1,3.773-3.944A6.97,6.97,0,0,1,66.4-35.675a7.208,7.208,0,0,1,4.885,1.531,4.408,4.408,0,0,1,1.712,3.535,1.937,1.937,0,0,1-.752,1.515,12.011,12.011,0,0,1-1.714,1.122l-.012.007a9.3,9.3,0,0,0-1.841,1.2,1.489,1.489,0,0,0-.5,1.169,12.084,12.084,0,0,0,1.352,3.19,35.835,35.835,0,0,1,2.951,7.058,3.665,3.665,0,0,0,1.815-.82A11.24,11.24,0,0,0,76.272-18.4l.032-.1a58.4,58.4,0,0,1,4.738-11.565C82.607-32.679,84.419-34,86.43-34a2.488,2.488,0,0,1,2.107.952,4.156,4.156,0,0,1,.671,2.563,11.474,11.474,0,0,1-.42,3.013c-.271.995-.682,2.206-1.222,3.6l0,.005c-.084.211-.26.74-.523,1.573s-.474,1.587-.626,2.241a7.588,7.588,0,0,0-.221,1.7,3.065,3.065,0,0,0,.671,2.14,2.364,2.364,0,0,0,1.844.71,3.263,3.263,0,0,0,2.132-.727,10.872,10.872,0,0,0,1.976-2.256,28.481,28.481,0,0,1,1.3-3.263,24.4,24.4,0,0,1,6.806-8.753A15.1,15.1,0,0,1,110.55-34a9.932,9.932,0,0,1,7.462,2.934c1.871,1.941,2.82,5,2.82,9.09a24.547,24.547,0,0,1-.842,6.4c1.793-.066,3.335-1.048,4.707-3a56.966,56.966,0,0,1,4.034-10.733C130.381-32.509,131.8-34,133.2-34a2.561,2.561,0,0,1,2.036.809,3.328,3.328,0,0,1,.675,2.237c0,1.313.283,1.979.84,1.979a2.949,2.949,0,0,0,1.79-1.06l.006-.006C141.263-32.668,144.108-34,147-34a6.177,6.177,0,0,1,4.864,1.911,6.94,6.94,0,0,1,1.667,4.753,8.723,8.723,0,0,1-.286,2.31c-.181.655-.454,1.511-.814,2.544l-.008.021c-.349.873-.614,1.624-.787,2.23a7.085,7.085,0,0,0-.249,1.94,3.139,3.139,0,0,0,.632,2.2,2.812,2.812,0,0,0,2.085.65,3.263,3.263,0,0,0,2.132-.727,10.747,10.747,0,0,0,2.073-2.464,1.735,1.735,0,0,1,1.49-.829,2.613,2.613,0,0,1,2.018.975,1.645,1.645,0,0,1,.363,2.045l-1.263,2.46a76.643,76.643,0,0,1-3.673,6.806,21.286,21.286,0,0,1-4.665,5.283A10.157,10.157,0,0,1,145.993.5Zm-5.427-22.641a3.2,3.2,0,0,1,2.21.731,2.709,2.709,0,0,1,.836,2.114,9.054,9.054,0,0,1-.492,2.594c-.317,1.019-.515,1.646-.606,1.919-.531,1.547-.955,2.943-1.263,4.153a14.855,14.855,0,0,0-.454,3.662,8.068,8.068,0,0,0,1.282,4.736A4.422,4.422,0,0,0,145.993-.5a9.181,9.181,0,0,0,5.948-2.165A20.291,20.291,0,0,0,156.388-7.7a75.668,75.668,0,0,0,3.627-6.722l.005-.011,1.289-2.508c.064-.107.215-.358-.249-.888a1.634,1.634,0,0,0-1.265-.633.738.738,0,0,0-.656.38,11.689,11.689,0,0,1-2.28,2.691,4.282,4.282,0,0,1-2.759.948,3.738,3.738,0,0,1-2.807-.958,4.06,4.06,0,0,1-.91-2.892,8.08,8.08,0,0,1,.287-2.214c.182-.636.456-1.415.816-2.316.35-1.008.616-1.839.79-2.47a7.73,7.73,0,0,0,.25-2.045,5.971,5.971,0,0,0-1.416-4.091A5.16,5.16,0,0,0,147-33c-2.621,0-5.231,1.237-7.757,3.676a3.724,3.724,0,0,1-2.494,1.349c-.839,0-1.84-.517-1.84-2.979,0-1.813-.914-2.046-1.711-2.046-.537,0-1.715.539-3.576,4.151a54.15,54.15,0,0,0-3.672,9.531q.1-.009.212-.009a2.918,2.918,0,0,1,2.011.8,1.639,1.639,0,0,1,.448,2.063,22.483,22.483,0,0,1-4.728,6.709l-.1.09a35.643,35.643,0,0,0-.352,4.774,4.377,4.377,0,0,0,1.169,3.173A4.2,4.2,0,0,0,127.836-.5a4.378,4.378,0,0,0,3.725-1.581A8.2,8.2,0,0,0,132.83-7.1v-3.015a16.2,16.2,0,0,1,1.038-5.772,12.271,12.271,0,0,1,2.8-4.468A5.54,5.54,0,0,1,140.566-22.141ZM92.824-8.734a10.01,10.01,0,0,0,2.546,5.342A9.414,9.414,0,0,0,102.51-.5a13.565,13.565,0,0,0,6.884-1.942A19.277,19.277,0,0,0,115.238-7.8l.15-.2h1.058a9.554,9.554,0,0,0,6.411-2.163,62,62,0,0,1,1.252-6.2,6.2,6.2,0,0,1-4.314,1.792h-1.141l.193-.644a23.5,23.5,0,0,0,.984-6.757c0-3.823-.855-6.648-2.54-8.4A8.97,8.97,0,0,0,110.55-33a14.123,14.123,0,0,0-9,3.274,23.407,23.407,0,0,0-6.527,8.4c-.294.623-.562,1.25-.8,1.875q.09-.009.183-.009a2.585,2.585,0,0,1,1.944.933,1.687,1.687,0,0,1,.446,2l-.018.034a26.758,26.758,0,0,0-1.379,2.76l-.007.014C94.505-11.887,93.642-10.211,92.824-8.734Zm-17.215.613A10.457,10.457,0,0,0,77-2.55,4.67,4.67,0,0,0,81.271-.5a8.353,8.353,0,0,0,5.506-2.093,19.476,19.476,0,0,0,4.181-4.9c.269-.453.546-.933.825-1.429a16.7,16.7,0,0,1-.158-2.335,22.548,22.548,0,0,1,.535-4.836,7.913,7.913,0,0,1-.693.636,4.282,4.282,0,0,1-2.759.948A3.352,3.352,0,0,1,86.13-15.54a4.015,4.015,0,0,1-.937-2.818,8.576,8.576,0,0,1,.248-1.923c.158-.679.376-1.458.647-2.315s.452-1.4.547-1.64c.527-1.361.927-2.539,1.189-3.5a10.475,10.475,0,0,0,.384-2.749c0-2.229-.95-2.515-1.778-2.515-1.635,0-3.159,1.158-4.529,3.442A53.308,53.308,0,0,0,77.66-19.443a1.867,1.867,0,0,1,.261-.018,2.551,2.551,0,0,1,1.951.975,1.74,1.74,0,0,1,.442,2.022,68.055,68.055,0,0,1-4.048,7.387C76.061-8.758,75.841-8.437,75.609-8.121ZM44.019-33c-1.635,0-3.159,1.158-4.529,3.442a57.486,57.486,0,0,0-4.642,11.352A33.251,33.251,0,0,0,33.2-8.375,10.668,10.668,0,0,0,34.59-2.55,4.67,4.67,0,0,0,38.86-.5a8.353,8.353,0,0,0,5.506-2.093,19.476,19.476,0,0,0,4.181-4.9l.151-.256a13.731,13.731,0,0,1-.356-3.173,15.208,15.208,0,0,1,.666-4.5,4.285,4.285,0,0,1-2.712.91,3.352,3.352,0,0,1-2.578-1.032,4.015,4.015,0,0,1-.937-2.818,8.575,8.575,0,0,1,.248-1.923c.158-.679.376-1.458.647-2.315s.452-1.4.547-1.639c.527-1.362.927-2.539,1.189-3.5a10.475,10.475,0,0,0,.384-2.749C45.8-32.714,44.847-33,44.019-33ZM49.77-7.6A10.144,10.144,0,0,0,52-3.515c1.746,1.956,4.45,2.948,8.035,2.948a15.348,15.348,0,0,0,9.383-2.916,26.01,26.01,0,0,0,5.192-4.968,32.093,32.093,0,0,1,1-7.57,8.777,8.777,0,0,1-.687.63,4.7,4.7,0,0,1-2.805,1.084l-.416.02-.094-.406a32.894,32.894,0,0,0-2.971-7.252l0-.008c-1.286-2.573-1.46-3.284-1.46-3.641a2.47,2.47,0,0,1,.836-1.913,10.1,10.1,0,0,1,2.038-1.341,11.217,11.217,0,0,0,1.563-1.019.932.932,0,0,0,.387-.753v-.019a3.414,3.414,0,0,0-1.371-2.753A6.257,6.257,0,0,0,66.4-34.675a6,6,0,0,0-3.742,1.466,20.564,20.564,0,0,0-3.6,3.761c-1.128,1.5-2.531,3.524-4.17,6.006-1.123,1.716-2.016,3.053-2.665,3.992a2.639,2.639,0,0,1,1.713.922,3.01,3.01,0,0,1,.265.332l.138-.236.005.328c1.642-2.119,3.12-4.143,4.4-6.03l0-.006a1.657,1.657,0,0,1,1.281-.883c.365,0,.866.167,1.191.96a11.681,11.681,0,0,1,1.52,5.3,5.556,5.556,0,0,1-1.368,3.852,4.826,4.826,0,0,1-3.755,1.539,4.812,4.812,0,0,1-3.02-.909,3.274,3.274,0,0,1-.887-1.011q-.341.683-.729,1.556l-.007.014C51.861-11.4,50.782-9.346,49.77-7.6ZM51-17.606a13.974,13.974,0,0,0-1.661,6.685,13.464,13.464,0,0,0,.122,1.833c.834-1.5,1.708-3.193,2.609-5.059.481-1.082.916-1.964,1.294-2.625v-.085l.152-.193c.043-.123.071-.372-.323-.8a1.608,1.608,0,0,0-1.205-.608.738.738,0,0,0-.656.38Q51.167-17.833,51-17.606Zm26.178-.353a34.8,34.8,0,0,0-1.524,7.972,68.037,68.037,0,0,0,3.754-6.91l0-.009c.051-.1.185-.37-.3-.921a1.579,1.579,0,0,0-1.2-.633.738.738,0,0,0-.656.38Zm16.54-.084a22.223,22.223,0,0,0-1.1,6.788q0,.385.017.76c.6-1.126,1.215-2.348,1.844-3.65a27.848,27.848,0,0,1,1.421-2.843c.053-.11.15-.372-.3-.864a1.608,1.608,0,0,0-1.205-.608.738.738,0,0,0-.656.38Zm31.9-.109a69.5,69.5,0,0,0-1.561,6.8,22.288,22.288,0,0,0,3.662-5.548l0-.009c.121-.242.177-.515-.224-.88a1.922,1.922,0,0,0-1.339-.54C125.8-18.327,125.672-18.224,125.618-18.153ZM54.375-16.511a1.972,1.972,0,0,0,.838,1.443,3.846,3.846,0,0,0,2.407.7,3.819,3.819,0,0,0,3.012-1.208,4.529,4.529,0,0,0,1.111-3.183,10.736,10.736,0,0,0-1.417-4.86l-.012-.023-.009-.024c-.033-.083-.152-.356-.273-.356,0,0-.158.025-.46.454-1.487,2.186-3.232,4.554-5.188,7.038l0,0ZM14.07.5A9.112,9.112,0,0,1,7.1-2.645c-1.887-2.073-2.844-5.2-2.844-9.281A39.586,39.586,0,0,1,6.544-24.177,94.26,94.26,0,0,1,13.058-38.8a11.662,11.662,0,0,0-2.673-.36,8.3,8.3,0,0,0-5.221,1.637,4.736,4.736,0,0,0-2.051,3.893,3.307,3.307,0,0,0,.635,2.076,1.715,1.715,0,0,0,1.411.774h.36l.114.342a4.726,4.726,0,0,1,.294,1.431,6.662,6.662,0,0,1-1.221,3.624,9.688,9.688,0,0,1-3.352,3.075,9.857,9.857,0,0,1-4.972,1.239,7.836,7.836,0,0,1-6.561-3.077,11.644,11.644,0,0,1-2.314-7.272A15.693,15.693,0,0,1-9.28-40.9,22.121,22.121,0,0,1-.441-47.791a30.168,30.168,0,0,1,12.568-2.557c3.366,0,5.693.563,7.116,1.72A6.351,6.351,0,0,1,21.4-43.416a24.447,24.447,0,0,1-.546,4.654c-1.155,5.644-2,10.012-2.51,12.985a44.831,44.831,0,0,0-.763,7.218c0,1.422.192,3.118,1.108,3.118,1.093,0,2.141-.894,3.113-2.656a87.07,87.07,0,0,0,4.124-9.348l.6-1.677c1.783-4.682,3.412-8.55,4.841-11.5a27.662,27.662,0,0,1,5.494-7.744,11.053,11.053,0,0,1,7.954-3.325A10.177,10.177,0,0,1,52-49.31a7.621,7.621,0,0,1,2.571,5.76,7.833,7.833,0,0,1-2.249,5.571,8.057,8.057,0,0,1-6.09,2.366,7.053,7.053,0,0,1-2.8-.529,6.345,6.345,0,0,1-1.354-.6,3.785,3.785,0,0,0-1.143-.21,5.059,5.059,0,0,0-3.774,2.1,25.542,25.542,0,0,0-3.481,5.52c-1.062,2.213-2.365,5.246-3.873,9.014-1.783,4.458-3.367,8.088-4.706,10.79A29,29,0,0,1,20.33-2.5,8.5,8.5,0,0,1,14.07.5ZM10.385-40.164a13.622,13.622,0,0,1,3.55.554l.607.168-.3.553C8.28-27.938,5.257-18.866,5.257-11.926c0,3.828.869,6.725,2.583,8.608A8.046,8.046,0,0,0,14.07-.5,7.546,7.546,0,0,0,19.6-3.19a28,28,0,0,0,4.606-6.78c1.328-2.678,2.9-6.283,4.674-10.717,1.516-3.789,2.828-6.843,3.9-9.076A26.534,26.534,0,0,1,36.4-35.5a6.092,6.092,0,0,1,4.343-2.45A5.189,5.189,0,0,1,39.9-41a6.476,6.476,0,0,1,1.836-4.991A7.7,7.7,0,0,1,47.1-47.668c2.387,0,4.129.58,5.177,1.722a5.074,5.074,0,0,1,1.181,3.7,7.508,7.508,0,0,0,.11-1.3,6.573,6.573,0,0,0-2.253-5.027,9.225,9.225,0,0,0-6.493-2.111,10.085,10.085,0,0,0-7.255,3.04,26.666,26.666,0,0,0-5.293,7.465c-1.416,2.92-3.033,6.76-4.805,11.413l-.606,1.684a87.977,87.977,0,0,1-4.182,9.473c-1.162,2.105-2.5,3.173-3.989,3.173a1.764,1.764,0,0,1-1.663-1.2,7.386,7.386,0,0,1-.445-2.917,45.784,45.784,0,0,1,.778-7.388c.512-2.983,1.358-7.362,2.515-13.014a23.465,23.465,0,0,0,.526-4.456,5.337,5.337,0,0,0-1.792-4.436c-1.22-.993-3.4-1.5-6.485-1.5A29.178,29.178,0,0,0-.028-46.88a21.136,21.136,0,0,0-8.448,6.575,14.713,14.713,0,0,0-3.018,8.882,10.668,10.668,0,0,0,2.108,6.664,6.8,6.8,0,0,0,5.767,2.685A8.873,8.873,0,0,0,.857-23.18,8.7,8.7,0,0,0,3.87-25.935a5.691,5.691,0,0,0,1.057-3.076,3.035,3.035,0,0,0-.144-.8,2.738,2.738,0,0,1-1.831-1.144,4.326,4.326,0,0,1-.839-2.681,5.749,5.749,0,0,1,2.438-4.683A9.269,9.269,0,0,1,10.385-40.164Zm33.4,3.083a8.648,8.648,0,0,0,2.514.334c3.8,0,5.8-1.648,6.135-5.039a4.415,4.415,0,0,0-.891-3.484c-.851-.928-2.345-1.4-4.44-1.4a6.764,6.764,0,0,0-4.686,1.409A5.533,5.533,0,0,0,40.9-41a3.629,3.629,0,0,0,1.4,3.21c.067.048.137.094.207.138.228.078.467.173.712.282l.028.012.026.016A4.663,4.663,0,0,0,43.783-37.081Zm62.546,23.712a3.737,3.737,0,0,1-3.031-1.185,4.447,4.447,0,0,1-.953-2.933,7.171,7.171,0,0,1,1.686-4.6,5.351,5.351,0,0,1,4.308-2.128,4.044,4.044,0,0,1,3.152,1.171,4.163,4.163,0,0,1,1.033,2.88,6.94,6.94,0,0,1-.79,3.1,7.31,7.31,0,0,1-2.192,2.623A5.278,5.278,0,0,1,106.329-13.369Zm2.01-9.849a4.34,4.34,0,0,0-3.531,1.758,6.2,6.2,0,0,0-1.463,3.973,3.435,3.435,0,0,0,.722,2.293,2.766,2.766,0,0,0,2.262.825,4.242,4.242,0,0,0,2.616-.873,6.319,6.319,0,0,0,1.895-2.268,5.953,5.953,0,0,0,.684-2.657,3.153,3.153,0,0,0-.776-2.212A3.105,3.105,0,0,0,108.339-23.218ZM88.708-35.747a7.791,7.791,0,0,1-4.577-1.231A4.614,4.614,0,0,1,82.312-41a6.476,6.476,0,0,1,1.836-4.991,7.7,7.7,0,0,1,5.364-1.673c2.387,0,4.129.58,5.177,1.722a5.356,5.356,0,0,1,1.15,4.248v.006a6.325,6.325,0,0,1-2.1,4.457A7.7,7.7,0,0,1,88.708-35.747Zm.8-10.921a6.764,6.764,0,0,0-4.686,1.409A5.533,5.533,0,0,0,83.312-41a3.629,3.629,0,0,0,1.4,3.21,6.83,6.83,0,0,0,4,1.047c3.8,0,5.8-1.648,6.135-5.039a4.415,4.415,0,0,0-.891-3.484C93.1-46.2,91.607-46.668,89.512-46.668Z" transform="translate(732 1278)"/><path d="M14.07,0a8.594,8.594,0,0,1-6.6-2.982Q4.757-5.963,4.757-11.926q0-10.586,9.045-27.2a13.07,13.07,0,0,0-3.417-.536,8.743,8.743,0,0,0-5.527,1.742,5.25,5.25,0,0,0-2.245,4.288,3.821,3.821,0,0,0,.737,2.379,2.2,2.2,0,0,0,1.809.971,4.309,4.309,0,0,1,.268,1.273,6.148,6.148,0,0,1-1.139,3.35,9.152,9.152,0,0,1-3.183,2.915,9.322,9.322,0,0,1-4.724,1.172,7.329,7.329,0,0,1-6.164-2.881,11.106,11.106,0,0,1-2.211-6.968A15.136,15.136,0,0,1-8.878-40.6,21.531,21.531,0,0,1-.235-47.336a29.537,29.537,0,0,1,12.362-2.512q4.824,0,6.8,1.608A5.852,5.852,0,0,1,20.9-43.416a23.847,23.847,0,0,1-.536,4.556q-1.742,8.509-2.513,13a45.092,45.092,0,0,0-.771,7.3q0,3.618,1.608,3.618,1.943,0,3.551-2.915A87.115,87.115,0,0,0,26.4-27.269l.6-1.675q2.68-7.035,4.824-11.457a27.039,27.039,0,0,1,5.394-7.6,10.524,10.524,0,0,1,7.6-3.182q4.422,0,6.834,2.244a7.109,7.109,0,0,1,2.412,5.394,7.316,7.316,0,0,1-2.111,5.226,7.545,7.545,0,0,1-5.729,2.211,6.138,6.138,0,0,1-3.216-.8,5.281,5.281,0,0,0-2.077-.536,5.5,5.5,0,0,0-4.154,2.278,25.917,25.917,0,0,0-3.551,5.628Q31.624-26.2,29.346-20.5q-2.68,6.7-4.69,10.754a28.37,28.37,0,0,1-4.69,6.9A7.99,7.99,0,0,1,14.07,0ZM46.3-36.247a7.277,7.277,0,0,1-4.288-1.139A4.126,4.126,0,0,1,40.4-41q0-6.164,6.7-6.164,6.3,0,5.829,5.427Q52.394-36.247,46.3-36.247ZM38.86,0a5.176,5.176,0,0,1-4.69-2.278,11.1,11.1,0,0,1-1.474-6.1,33.6,33.6,0,0,1,1.675-9.983,57.653,57.653,0,0,1,4.69-11.457Q41.272-33.5,44.019-33.5q2.278,0,2.278,3.015a10.923,10.923,0,0,1-.4,2.881,37.354,37.354,0,0,1-1.206,3.551q-.134.335-.536,1.608t-.637,2.278a8.043,8.043,0,0,0-.235,1.809,3.523,3.523,0,0,0,.8,2.479,2.86,2.86,0,0,0,2.211.871,3.778,3.778,0,0,0,2.445-.838,11.627,11.627,0,0,0,2.178-2.513,1.233,1.233,0,0,1,1.072-.6,2.1,2.1,0,0,1,1.574.771,1.236,1.236,0,0,1,.369,1.441,27.1,27.1,0,0,0-1.407,2.814q-1.876,3.886-3.551,6.7a19.882,19.882,0,0,1-4.288,5.025A8.8,8.8,0,0,1,38.86,0ZM76.849-18.358a1.233,1.233,0,0,1,1.072-.6,2.065,2.065,0,0,1,1.575.8,1.291,1.291,0,0,1,.368,1.474,67.255,67.255,0,0,1-4.02,7.337,24.446,24.446,0,0,1-6.131,6.265A15.767,15.767,0,0,1,60.032-.067q-5.628,0-8.409-3.116a11.2,11.2,0,0,1-2.781-7.739,14.408,14.408,0,0,1,2.01-7.437l.268-.4q.938-1.273,3.35-4.958,2.479-3.752,4.188-6.03A20.965,20.965,0,0,1,62.344-33.6,6.457,6.457,0,0,1,66.4-35.175a6.7,6.7,0,0,1,4.556,1.407,3.914,3.914,0,0,1,1.541,3.149,1.427,1.427,0,0,1-.569,1.139,11.655,11.655,0,0,1-1.642,1.072,9.733,9.733,0,0,0-1.943,1.273,1.981,1.981,0,0,0-.67,1.541,13.13,13.13,0,0,0,1.407,3.417,33.2,33.2,0,0,1,3.015,7.37,4.188,4.188,0,0,0,2.513-.971A12.132,12.132,0,0,0,76.849-18.358ZM57.62-13.869A4.328,4.328,0,0,0,61-15.243a5.05,5.05,0,0,0,1.239-3.517,11.167,11.167,0,0,0-1.474-5.092q-.268-.67-.737-.67-.4,0-.871.67-2.278,3.35-5.293,7.169a2.449,2.449,0,0,0,1.039,2.01A4.309,4.309,0,0,0,57.62-13.869ZM88.708-36.247a7.277,7.277,0,0,1-4.288-1.139A4.126,4.126,0,0,1,82.812-41q0-6.164,6.7-6.164,6.3,0,5.829,5.427Q94.805-36.247,88.708-36.247ZM81.271,0a5.176,5.176,0,0,1-4.69-2.278,11.1,11.1,0,0,1-1.474-6.1,33.6,33.6,0,0,1,1.675-9.983,57.652,57.652,0,0,1,4.69-11.457Q83.683-33.5,86.43-33.5q2.278,0,2.278,3.015a10.924,10.924,0,0,1-.4,2.881A37.352,37.352,0,0,1,87.1-24.053q-.134.335-.536,1.608t-.636,2.278a8.043,8.043,0,0,0-.234,1.809,3.523,3.523,0,0,0,.8,2.479,2.86,2.86,0,0,0,2.211.871,3.778,3.778,0,0,0,2.445-.838,11.627,11.627,0,0,0,2.178-2.513,1.233,1.233,0,0,1,1.072-.6,2.1,2.1,0,0,1,1.575.771,1.236,1.236,0,0,1,.368,1.441,27.1,27.1,0,0,0-1.407,2.814q-1.876,3.886-3.551,6.7A19.882,19.882,0,0,1,87.1-2.211,8.8,8.8,0,0,1,81.271,0Zm43.885-18.358a1.056,1.056,0,0,1,1.005-.469,2.422,2.422,0,0,1,1.675.67,1.143,1.143,0,0,1,.335,1.474,21.888,21.888,0,0,1-4.623,6.566,9.882,9.882,0,0,1-7.1,2.613h-.8a19.683,19.683,0,0,1-6,5.494A13.994,13.994,0,0,1,102.51,0a9.854,9.854,0,0,1-7.5-3.049,11.461,11.461,0,0,1-2.881-8.208,23.989,23.989,0,0,1,2.446-10.285,23.793,23.793,0,0,1,6.666-8.576A14.547,14.547,0,0,1,110.55-33.5a9.411,9.411,0,0,1,7.1,2.78q2.68,2.781,2.68,8.744a23.887,23.887,0,0,1-1,6.9h.469Q122.878-15.075,125.156-18.358Zm-18.827,4.489a4.767,4.767,0,0,0,2.914-.971,6.783,6.783,0,0,0,2.044-2.446,6.417,6.417,0,0,0,.737-2.881,3.662,3.662,0,0,0-.9-2.546,3.557,3.557,0,0,0-2.781-1,4.852,4.852,0,0,0-3.919,1.943,6.654,6.654,0,0,0-1.575,4.288,3.946,3.946,0,0,0,.838,2.613A3.254,3.254,0,0,0,106.329-13.869ZM127.836,0a4.711,4.711,0,0,1-3.585-1.373,4.9,4.9,0,0,1-1.306-3.518,51.416,51.416,0,0,1,2.211-13.467,56.352,56.352,0,0,1,4.02-10.72q2.278-4.422,4.02-4.422,2.211,0,2.211,2.546,0,2.479,1.34,2.479a3.319,3.319,0,0,0,2.144-1.206Q142.844-33.5,147-33.5a5.677,5.677,0,0,1,4.489,1.742,6.427,6.427,0,0,1,1.541,4.422,8.188,8.188,0,0,1-.268,2.178q-.268.972-.8,2.512-.536,1.34-.8,2.278a7.547,7.547,0,0,0-.268,2.077,3.579,3.579,0,0,0,.771,2.546,3.257,3.257,0,0,0,2.445.8,3.778,3.778,0,0,0,2.445-.838,11.17,11.17,0,0,0,2.178-2.58,1.233,1.233,0,0,1,1.072-.6,2.125,2.125,0,0,1,1.641.8,1.192,1.192,0,0,1,.3,1.474L160.465-14.2a75.8,75.8,0,0,1-3.652,6.767,20.692,20.692,0,0,1-4.556,5.159A9.627,9.627,0,0,1,145.993,0a4.927,4.927,0,0,1-4.322-1.943A8.512,8.512,0,0,1,140.3-6.968a15.285,15.285,0,0,1,.469-3.786q.469-1.843,1.273-4.187.134-.4.6-1.91a8.671,8.671,0,0,0,.469-2.446,2.223,2.223,0,0,0-.67-1.742,2.706,2.706,0,0,0-1.876-.6A5.039,5.039,0,0,0,137.015-20a11.724,11.724,0,0,0-2.68,4.288,15.625,15.625,0,0,0-1.005,5.594V-7.1Q133.33,0,127.836,0Z" transform="translate(732 1278)" fill="#fff"/></g></svg>